<svg xmlns="http://www.w3.org/2000/svg" viewBox="0 0 874.86 121.04"><defs><style>.cls-1{stroke:#262424;stroke-miterlimit:22.93;stroke-width:0.22px;}.cls-1,.cls-2{fill-rule:evenodd;}.cls-3{font-size:29.53px;stroke:#211915;stroke-miterlimit:5;stroke-width:0.22px;font-family:FuturaBT-Book, Futura Bk BT;}</style></defs><title>bio</title><g id="Capa_2" data-name="Capa 2"><g id="Capa_1-2" data-name="Capa 1"><path class="cls-1" d="M63,77.93a1.66,1.66,0,0,1,1.84,1.74c0,4.78-7.41,13.53-11.45,13.53a1.59,1.59,0,0,1-1.64-1.69c0-4.73,7.36-13.58,11.25-13.58Zm.41-2.63c-2.66,0-5.83,1.69-8.69,4.72-3.43,3.53-5.89,8.36-5.89,11.54a4.15,4.15,0,0,0,4.3,4.33c2.76,0,6.09-1.8,9-4.83,3.38-3.58,5.68-8.25,5.68-11.49a4,4,0,0,0-4.35-4.27ZM45,66.84c0-1.19-.51-1.79-1.43-1.79s-1.48.65-1.48,1.79v2.69c0,1.19.51,1.79,1.43,1.79S45,70.67,45,69.53V66.84Zm0,10.3c0-1.25-.51-1.84-1.43-1.84s-1.48.64-1.48,1.84V94.05c0,1.24.51,1.84,1.43,1.84S45,95.24,45,94.05V77.14Zm-21.53,4A12.66,12.66,0,0,1,31.27,78a3.49,3.49,0,0,1,3.78,3.68c0,2-1,3.78-3.22,5.82-1.95,1.79-3.89,3-8.39,5.17V81.17Zm0-17.71c0-1.14-.51-1.74-1.43-1.74s-1.49.65-1.49,1.74V93.6c0,1.19,0,1.19.11,1.44a1.19,1.19,0,0,0,1.27.85c1.33,0,4.86-1.6,8.5-3.83,5.16-3.19,7.72-6.67,7.72-10.55s-2.45-6.21-6.45-6.21c-2.76,0-5,.74-8.23,2.78Z"/><path class="cls-2" d="M7.05,106.23c15,20.21,52.89,18,65.18,3.8,20.3-23.48,7.84-48.91-11.7-67.69-6.15-5.91-9.61-8.1-12.05-17.58C44.23,8.21,49.83,3.92,43.81,0,42.2.42,40,1.06,40,2.75c0,8.84,1.06,19,3.19,26.19,3.13,10.54,6.83,11.69,11.34,17.37s9.35,8.82,14.28,15.41c10.51,14,10.6,30.84-.93,44.12-7,8-17.81,9.52-28.82,9.52-19,0-33-13.55-33-30.22,0-19.41,14.16-28.47,26.38-43.93C43,28,41.4,30.32,40,19.23H38.16c-.91,10.55-20.84,29.36-28,38.7C-1.14,72.66-4.19,91.05,7.05,106.23Z"/><text class="cls-3" transform="translate(101.88 72.54)">Comprometidos con el medio ambiente nuestras bolsas son<tspan x="88.74" y="29.53">Oxo biodegradables, reutilizables, reciclables </tspan></text></g></g></svg>