<svg xmlns="http://www.w3.org/2000/svg" viewBox="0 0 411.77 254.21"><defs><style>.cls-1{fill:#f4cf00;}.cls-2{fill:#f1b634;}.cls-3{fill:#c8002d;}.cls-4{fill:#9822a7;}.cls-5{fill:#0056b4;}.cls-10,.cls-11,.cls-13,.cls-6,.cls-7,.cls-8,.cls-9{fill:none;}.cls-6{stroke:#f4cf00;}.cls-10,.cls-11,.cls-6,.cls-7,.cls-8,.cls-9{stroke-linecap:round;stroke-miterlimit:22.93;stroke-width:2.5px;fill-rule:evenodd;}.cls-7{stroke:#f1b634;}.cls-8{stroke:#c8002d;}.cls-9{stroke:#9822a7;}.cls-10{stroke:#0056b4;}.cls-11{stroke:#93ba1f;}.cls-12{fill:#93ba1f;}</style></defs><title>bolsaspie</title><g id="Capa_2" data-name="Capa 2"><g id="Capa_1-2" data-name="Capa 1"><polygon class="cls-1" points="191.97 253.3 62.8 159.87 44.09 253.3 168.62 253.3 191.97 253.3"/><polygon class="cls-2" points="264.15 253.3 159.02 74.7 70.02 201.96 168.62 253.3 257.07 253.3 264.15 253.3"/><polygon class="cls-3" points="306.74 253.3 261.24 35.16 136.13 127.17 257.07 253.3 304.54 253.3 306.74 253.3"/><polygon class="cls-4" points="343.23 253.3 350.47 26.03 207.23 86.03 304.54 253.3 341.43 253.3 343.23 253.3"/><polygon class="cls-5" points="377.75 253.3 410.99 81.92 410.99 56.53 410.99 33.32 269.92 67.38 341.43 253.3 376.68 253.3 377.75 253.3"/><path class="cls-6" d="M15,253c-11.78-13.2-21-26-5.7-31.16,25.61-8.67,38.89,25.71,45.33-21.86"/><path class="cls-7" d="M83.54,160.78c-13-4.69-13.35,19.49,3.39,12.71s-30.8-73.32,1.87-70.58c26.94,2.26,25.41,39.08,50.28-2"/><path class="cls-8" d="M162.14,92.49c-10.8-8.61-18.89,14.18-.86,13.13s-5.67-79.32,24.4-66.25c24.8,10.78,11.54,45.17,48.26,14.26"/><path class="cls-9" d="M240.67,58.44C232.19,47.53,219,67.78,236.74,71s13.15-78.43,39.31-58.65c21.56,16.31.58,46.61,43.55,25.21"/><path class="cls-10" d="M307.32,45.47c-6.63-12.12-22.9,5.77-5.87,11.77S326.91-18.1,349.58,5.59c18.7,19.53-6.83,46.11,39,31.81"/><path class="cls-11" d="M388.91,44.38c-3.83-13.27-23.61.64-8.3,10.21,8,5,18.9-13.77,29.91-28.84"/><polygon class="cls-12" points="410.99 56.53 347.63 57.61 376.68 253.3 410.99 253.3 410.99 56.53"/><polygon class="cls-13" points="410.99 253.3 410.99 81.92 377.75 253.3 410.99 253.3"/></g></g></svg>