<svg id="Capa_1" data-name="Capa 1" xmlns="http://www.w3.org/2000/svg" xmlns:xlink="http://www.w3.org/1999/xlink" viewBox="0 0 882 187"><defs><style>.cls-1{fill:none;}.cls-2{clip-path:url(#clip-path);}.cls-10,.cls-11,.cls-12,.cls-13,.cls-14,.cls-15,.cls-16,.cls-17,.cls-18,.cls-19,.cls-20,.cls-21,.cls-22,.cls-23,.cls-24,.cls-25,.cls-26,.cls-27,.cls-28,.cls-29,.cls-3,.cls-30,.cls-31,.cls-32,.cls-33,.cls-34,.cls-35,.cls-36,.cls-37,.cls-38,.cls-39,.cls-4,.cls-40,.cls-41,.cls-42,.cls-43,.cls-44,.cls-45,.cls-5,.cls-6,.cls-7,.cls-8,.cls-9{fill-rule:evenodd;}.cls-3{fill:url(#GradientFill_2);}.cls-4{fill:url(#GradientFill_2-2);}.cls-5{fill:url(#GradientFill_2-3);}.cls-6{fill:url(#GradientFill_2-4);}.cls-7{fill:url(#GradientFill_2-5);}.cls-8{fill:url(#GradientFill_2-6);}.cls-9{fill:url(#GradientFill_2-7);}.cls-10{fill:url(#GradientFill_2-8);}.cls-11{fill:url(#GradientFill_2-9);}.cls-12{fill:url(#GradientFill_2-10);}.cls-13{fill:url(#GradientFill_2-11);}.cls-14{fill:url(#GradientFill_2-12);}.cls-15{fill:url(#GradientFill_2-13);}.cls-16{fill:url(#GradientFill_2-14);}.cls-17{fill:url(#GradientFill_2-15);}.cls-18{fill:url(#GradientFill_2-16);}.cls-19{fill:url(#GradientFill_2-17);}.cls-20{fill:url(#GradientFill_2-18);}.cls-21{fill:url(#GradientFill_2-19);}.cls-22{fill:url(#GradientFill_2-20);}.cls-23{fill:url(#GradientFill_2-21);}.cls-24{fill:url(#GradientFill_2-22);}.cls-25{fill:url(#GradientFill_2-23);}.cls-26{fill:url(#GradientFill_2-24);}.cls-27{fill:url(#GradientFill_2-25);}.cls-28{fill:url(#GradientFill_2-26);}.cls-29{fill:url(#GradientFill_2-27);}.cls-30{fill:url(#GradientFill_2-28);}.cls-31{fill:url(#GradientFill_2-29);}.cls-32{fill:url(#GradientFill_2-30);}.cls-33{fill:url(#GradientFill_2-31);}.cls-34{fill:url(#GradientFill_2-32);}.cls-35{fill:url(#GradientFill_2-33);}.cls-36{fill:url(#GradientFill_2-34);}.cls-37{fill:url(#GradientFill_2-35);}.cls-38{fill:url(#GradientFill_2-36);}.cls-39{fill:url(#GradientFill_2-37);}.cls-40{fill:url(#GradientFill_2-38);}.cls-41{fill:url(#GradientFill_2-39);}.cls-42{fill:url(#GradientFill_2-40);}.cls-43{fill:url(#GradientFill_2-41);}.cls-44{fill:url(#GradientFill_2-42);}.cls-45{fill:url(#GradientFill_2-43);}.cls-46{fill:#ffd100;}</style><clipPath id="clip-path"><rect class="cls-1" y="0.01" width="882" height="186.97"/></clipPath><linearGradient id="GradientFill_2" x1="454.54" y1="101.04" x2="472.38" y2="101.04" gradientUnits="userSpaceOnUse"><stop offset="0" stop-color="#fcf288"/><stop offset="1" stop-color="#d48300"/></linearGradient><linearGradient id="GradientFill_2-2" x1="426.92" y1="79.07" x2="431.86" y2="79.07" xlink:href="#GradientFill_2"/><linearGradient id="GradientFill_2-3" x1="411.3" y1="158.23" x2="532.63" y2="158.23" xlink:href="#GradientFill_2"/><linearGradient id="GradientFill_2-4" x1="488.33" y1="102.54" x2="489.07" y2="102.54" xlink:href="#GradientFill_2"/><linearGradient id="GradientFill_2-5" x1="431.61" y1="80.36" x2="489.21" y2="80.36" xlink:href="#GradientFill_2"/><linearGradient id="GradientFill_2-6" x1="333.17" y1="136.55" x2="407.04" y2="136.55" xlink:href="#GradientFill_2"/><linearGradient id="GradientFill_2-7" x1="368.76" y1="160.09" x2="377.54" y2="160.09" xlink:href="#GradientFill_2"/><linearGradient id="GradientFill_2-8" x1="364.06" y1="112.7" x2="368.59" y2="112.7" xlink:href="#GradientFill_2"/><linearGradient id="GradientFill_2-9" x1="357.18" y1="64.18" x2="366.22" y2="64.18" xlink:href="#GradientFill_2"/><linearGradient id="GradientFill_2-10" x1="324.68" y1="9.24" x2="330.13" y2="9.24" xlink:href="#GradientFill_2"/><linearGradient id="GradientFill_2-11" x1="327.27" y1="4.26" x2="351.86" y2="4.26" xlink:href="#GradientFill_2"/><linearGradient id="GradientFill_2-12" x1="180.53" y1="14.51" x2="193.07" y2="14.51" xlink:href="#GradientFill_2"/><linearGradient id="GradientFill_2-13" x1="247.49" y1="100.99" x2="263.1" y2="100.99" xlink:href="#GradientFill_2"/><linearGradient id="GradientFill_2-14" x1="214.15" y1="140.34" x2="220.08" y2="140.34" xlink:href="#GradientFill_2"/><linearGradient id="GradientFill_2-15" x1="121.96" y1="68.72" x2="406.38" y2="68.72" xlink:href="#GradientFill_2"/><linearGradient id="GradientFill_2-16" x1="262.58" y1="194.26" x2="294.7" y2="194.26" xlink:href="#GradientFill_2"/><linearGradient id="GradientFill_2-17" x1="260.14" y1="137.24" x2="265.66" y2="137.24" xlink:href="#GradientFill_2"/><linearGradient id="GradientFill_2-18" x1="251.01" y1="146.09" x2="263.54" y2="146.09" xlink:href="#GradientFill_2"/><linearGradient id="GradientFill_2-19" x1="245.17" y1="153.46" x2="250.18" y2="153.46" xlink:href="#GradientFill_2"/><linearGradient id="GradientFill_2-20" x1="238.4" y1="160.4" x2="241.29" y2="160.4" xlink:href="#GradientFill_2"/><linearGradient id="GradientFill_2-21" x1="182.34" y1="194.28" x2="196.23" y2="194.28" xlink:href="#GradientFill_2"/><linearGradient id="GradientFill_2-22" x1="180.84" y1="175.79" x2="191.02" y2="175.79" xlink:href="#GradientFill_2"/><linearGradient id="GradientFill_2-23" x1="189.44" y1="130.81" x2="207.84" y2="130.81" xlink:href="#GradientFill_2"/><linearGradient id="GradientFill_2-24" x1="193.01" y1="102.68" x2="216.34" y2="102.68" xlink:href="#GradientFill_2"/><linearGradient id="GradientFill_2-25" x1="157.89" y1="189.58" x2="184.47" y2="189.58" xlink:href="#GradientFill_2"/><linearGradient id="GradientFill_2-26" x1="148.03" y1="168.38" x2="154.95" y2="168.38" xlink:href="#GradientFill_2"/><linearGradient id="GradientFill_2-27" x1="149.06" y1="138.66" x2="159.7" y2="138.66" xlink:href="#GradientFill_2"/><linearGradient id="GradientFill_2-28" x1="163.56" y1="84.19" x2="176.24" y2="84.19" xlink:href="#GradientFill_2"/><linearGradient id="GradientFill_2-29" x1="126.88" y1="130.11" x2="160.42" y2="130.11" xlink:href="#GradientFill_2"/><linearGradient id="GradientFill_2-30" x1="119.04" y1="122.65" x2="134.96" y2="122.65" xlink:href="#GradientFill_2"/><linearGradient id="GradientFill_2-31" x1="105.4" y1="126.54" x2="117.72" y2="126.54" xlink:href="#GradientFill_2"/><linearGradient id="GradientFill_2-32" x1="104.68" y1="143.11" x2="109.9" y2="143.11" xlink:href="#GradientFill_2"/><linearGradient id="GradientFill_2-33" x1="84.34" y1="149.47" x2="95.98" y2="149.47" xlink:href="#GradientFill_2"/><linearGradient id="GradientFill_2-34" x1="68.8" y1="161.26" x2="80.4" y2="161.26" xlink:href="#GradientFill_2"/><linearGradient id="GradientFill_2-35" x1="11.7" y1="150.93" x2="76.89" y2="150.93" xlink:href="#GradientFill_2"/><linearGradient id="GradientFill_2-36" x1="32.98" y1="43" x2="63.45" y2="43" xlink:href="#GradientFill_2"/><linearGradient id="GradientFill_2-37" x1="-3.64" y1="85.57" x2="14.11" y2="85.57" xlink:href="#GradientFill_2"/><linearGradient id="GradientFill_2-38" x1="64.82" y1="19.94" x2="96.74" y2="19.94" xlink:href="#GradientFill_2"/><linearGradient id="GradientFill_2-39" x1="127.85" y1="31.31" x2="133.98" y2="31.31" xlink:href="#GradientFill_2"/><linearGradient id="GradientFill_2-40" x1="108.23" y1="52.19" x2="134.23" y2="52.19" xlink:href="#GradientFill_2"/><linearGradient id="GradientFill_2-41" x1="303.46" y1="-0.53" x2="312.45" y2="-0.53" xlink:href="#GradientFill_2"/><linearGradient id="GradientFill_2-42" x1="404.21" y1="23.13" x2="419.14" y2="23.13" xlink:href="#GradientFill_2"/><linearGradient id="GradientFill_2-43" x1="413.09" y1="45.91" x2="423.31" y2="45.91" xlink:href="#GradientFill_2"/></defs><title>contactenos</title><g class="cls-2"><path class="cls-3" d="M454.73,95.64l.09-.19,0-.18c1.12-3.46,6.2-2,9.2-.43.27.14,10.18,4.2,8,10.87a4.55,4.55,0,0,1-3.44,2.87l-.16.33-.47-.24a5.18,5.18,0,0,1-2.89-.53,31.36,31.36,0,0,1-7.57-6.32C455.46,100,454,97.88,454.73,95.64Z"/><path class="cls-4" d="M429.54,81.46l-2.62-1.33L428,76.68l3.82,3C430.71,80.36,430,80.53,429.54,81.46Z"/><path class="cls-5" d="M520.7,199.83s-.52-.85,1.25,0,1.51,2.42,2.92,4c2.38-1.52,4.81-1.24,5.94-3,.58.88,1.19,1.71,1.82,2.51l-19.75-85.31c-6.76-4.65-13.9-8.38-20.87-12.92a19.66,19.66,0,0,1,2.32,2q-2.7-2-5.26-4.29a20.87,20.87,0,0,0,4.6,4.78c-6.14-1.7-23.43,1.11-25.26,6.77C467,119,478.66,150.83,479.9,155.73a37.75,37.75,0,0,0-2.77-3.51c-2.66-4.24-6.31-7.59-9.17-11.58a25.29,25.29,0,0,1-1.87-4c-3.23-9.08-8.45-17.26-14.25-22.68a16.47,16.47,0,0,0-4.32-3.68l-.85-.28c-.48-.3-1-.57-1.46-.83-.08-.53-.13-1-.18-1.53l.26-.61a11.18,11.18,0,0,0-.6-4.48c-.19-2.63-.69-4.85-2.7-6.63l-.72-.71-.29-.07-1.12-.65c-3.63-1.84-4.22-3-9.92,1.4.28.7.61,1.45,1,2.21l0,.15.34.45c1.38,2.86,3.09,5.71,4.42,6.39,1.77.9,2.24-.56,4,.33s2.75,2.82,3.79,3.89l-1.58-.28c-2.72-.69-6.21-1.39-7.64-2.11-11.19-5.67-.83-11-8.29-16a7.17,7.17,0,0,0-1.14-.69l-.11,0-.24-.15c-5.32-2.69-3.72,1.27-11.32,2.14l-1,3-.12.09.06.1-.76,2.35a23.8,23.8,0,0,1,3.76,2.4c1.8,2.53,4,5.27,5.7,7.38a7.39,7.39,0,0,0,3.05,3.48c1.77.9,2.95-.2,4.71.69.45.22,11.35,29.57,13.92,30.86,1.77.91,3-.41,4-1.45a16,16,0,0,1,1.37.85c.36.72.72,1.49,1.08,2.24l-.06.32c-.59,1.83-1.53-.35-2.13,1.47-1.44,4.47,1.71,5.66,4.45,7.89.93,1.2,1.83,2.31,2.66,3.27a7.84,7.84,0,0,1,.53,1.55l2.11,1.07.52.36,1,.43,2.48,1.25,1.24-3.81c.85-.26.21-.46,2,.44,13.63,6.91,17.59,54.83,24.76,58.47,1.77.9,3.3,0,5.07.86l.37.26c1.7,1.36,3.66,6.1,5.12,9.33a3.91,3.91,0,0,1,2.1,0c-9.33-25.49-21.28-49.57-26.61-73.08,0,0-.54-.81,1.24.08s.23,1.83,2,2.72,2.54-.54,3.21-.92c6.12,11.72,10.66,25.28,21.75,34.29,2.95,2.35,2.2,8.38,4.29,11.79,1.34,2.15,4,3,6,4.44a78.77,78.77,0,0,0,7.89,12.57c1.21,2.4,2.47,4.92,3.87,7.58a3,3,0,0,0,2.15-.11C525.55,219.14,520.76,206.05,520.7,199.83Z"/><polygon class="cls-6" points="488.51 102.15 489.07 102.94 488.33 102.3 488.51 102.15"/><path class="cls-7" d="M488.33,102.3c-.54.55-.74,1.93-2.33,1.13-1.77-.9-17.7-19.18-19.46-20.08S449.89,80,448.13,79.12c-4.25-2.16-7.91-10-6.49-14.34.6-1.84,2.55-2.07,3.89-1.82-4.92-3.93-7.19,1.84-11.8-.5-1.76-.89-1.17-1.44-2.12-2l1.1-3.39c4.19.26,12.36,1,14.13,1.87s1.65,2.54,3.42,3.44,1.12.69,1.88.57c-1.09-1.38-1.28-.5-1.8-2.55l-.2-.21.15,0-.23-1c1.92-.16,3.74-.14,4.61.36A8.11,8.11,0,0,0,457.22,64l0,0a7.59,7.59,0,0,0,2.66,1.55c5.05,2.55,6.62,4.2,12.74,2.74l-7.1-3.59c7.84.06,15.42.51,23.22,1a4,4,0,0,1,.37,2.41c-4.44.75-9.67-.66-10.82,2.9a9,9,0,0,0-.42,1.39l.39.79,3.55,1.8-2.09,6.45a11.4,11.4,0,0,0-1.9-1.31c-1.61.24-3.66-.63-5.37-1.14-.7,0-1.29.11-1.72.13A71.69,71.69,0,0,0,488.33,102.3Z"/><path class="cls-8" d="M393.09,165.44c.12,8.24-4.37,37.45-6.14,42.93a4.05,4.05,0,0,1-5.2,2c-1.77-.9-2.36-4.17-1.77-6,.46-1.42,1.34-1.09,2-1.73q.33-.8.66-1.56a2.8,2.8,0,0,0-.8-2.77,16.2,16.2,0,0,1-1.85-1.29c-2.3-1.37-4.91-3-2.95-9,.59-1.82,7.91-14.27,8.51-16.09.19-.64-.76-6.57-2-13.88-1.25-3.37-2.35-6.62-1.75-9.79-.59-3.29-1.17-6.51-1.68-9.4-.87-.71-.67-1.29-.67-1.29l.23-1.18a76,76,0,0,1-1.27-8.49c3.27-10.15,9.67,5.74,13.81-7,2.53-7.86,0-13.17-8.73-17.6-1.77-.9-4.49-1.44-6.15-2.39l.26-.82,0,0,0,0,.65-2a29.4,29.4,0,0,1-2.75,2.71c-1.39,1.65-2.91,3.31-4.06,4.77a10.28,10.28,0,0,0-1.12,3.72c-5-2.86-4.9-7.12-6-10.8l-.18-.27h.09a10,10,0,0,0-.46-1.23c1.67,1.06,2.06.13,3.44-.59-.44-.8-.22-.57-2-1.47-2.65-1.34-9.82,10-10.91,12.16-5.58-.14-15.88,3.16-17.65,2.27-1.41-.72-4-8-3.31-10.18.95-2.9,3.43-3.76,5.93-4.76a39.65,39.65,0,0,1,3.85-2.15,7.58,7.58,0,0,0,2.38-4.69c2.54,2.74,4.66.37,5-.54.59-1.84,0-1.3,0-1.3l-1.7.78-5.38-2.73.3-.93-.05-.07.09-.06.5-1.55a13.78,13.78,0,0,1,3.15-1.49c.54-.55,1.05-1.11,1.57-1.65l-3.15-1.59c1.16-4-.13-10.15.46-12s2.31-1.69,3.37-2L352,63.62c-.19,3.56.86,8,.27,9.85-.52,1.59-2.11,2.64-2.95,4a15.83,15.83,0,0,1,3.88-3.17v-.48c1.7-.22,3.42-1.1,5.19-.21s2.36,2.9,2.87,3.23c6.9-6.23,13.86-15.15,24.39-9.81,3.37,1.71,7.29,8,6,12-.65,2-11.25,9.28-12.27,12.48-.6,1.83,1.05,1.81.47,3.64a8.13,8.13,0,0,1-1.19,2.26c4.86-3.08,14.16-4.65,13.82-13.1,2.47,1.07,4.72.51,6.49,1.41l.2.12.15.06.15.11c3.6,2.21,7.67,8.74,7.5,16-.08,2.59-1.73,4.89-2.24,7.38a146.45,146.45,0,0,1,.84,18.27c.15,2.56.24,4.38.22,4.48-.59,1.82-1.31,6.57-1.89,8.39s-3,1.31-4.62,2.08c-2.39,5.26-6.45,9.21-7.67,12.95C391.09,157.34,393.06,162.34,393.09,165.44Z"/><path class="cls-9" d="M376.79,160.73v0h0c-.26.78-.54,1.53-.86,2.35a16.6,16.6,0,0,0-6.47-1.46,6.73,6.73,0,0,1-.51-4.35,9.78,9.78,0,0,0,2.79.06,2.64,2.64,0,0,1,2.2-.13c1.48-.05,2.84.13,3.61,1.07C377.29,159.16,377.05,159.94,376.79,160.73Z"/><path class="cls-10" d="M367.31,109.57l1.28,2.69a10.09,10.09,0,0,0-2.08,3.58c-1.71-.75-2.89-.92-2.3-2.74S365.83,110.75,367.31,109.57Z"/><path class="cls-11" d="M364.47,61.36c1.76.89,1.55,2.71,1.75,4.76-4,2.14-4.59,1.44-6.43.47l-1.33-.67-.09,0,0,0-.81-.41c-.29-2-.63-1.12,0-3S362.7,60.46,364.47,61.36Z"/><path class="cls-12" d="M324.68,8.67c1.17-.78,2.64-1.87,4.41-1s.82,2.55.42,3.41Z"/><path class="cls-13" d="M337.66,2.35c-.58-.07-1.19-.14-1.84-.17a13.37,13.37,0,0,1,3.29,5.07,52.57,52.57,0,0,1-5,2.06L331.57,8c.46-1.81,2-1.45,2.59-3.29s.5-1.15.13-2.09l-2.55-1.31L329.86,2,327.27.7c1.5-1.37,18.46-2.42,22.71-.27,1.77.9,1.39,1.69,1.88,3.1-6.59,1.73-9.32-.38-13.83-1.12Z"/><path class="cls-14" d="M186.57,16.2c-1.89-.93-3.65-2.43-6-2.33a6.67,6.67,0,0,1,7.36-1.14l5.18,2.63c-2.29,1.79-4,1.8-5.6,1.23l-.27-.1,0,0-.51-.22Z"/><path class="cls-15" d="M251.12,102.33l.1-.28a37.11,37.11,0,0,0-3.73-2.47l.74-.41-.54-.28,1.77-.35c3.42-1.61,8-3,10.79-1.6,1.77.89,2.34,1.31,2.85,2.53L262,102.73c-5.35.84-9.41,3-13.08,2.87l1.13-3.49A3,3,0,0,0,251.12,102.33Z"/><path class="cls-16" d="M214.91,142.82c-.68-1.32-1.06-.53-.46-2.36s3.6-2.8,5.63-2.57C218.64,140.17,217.09,142.1,214.91,142.82Z"/><path class="cls-17" d="M206.87,181.69c.47-1.41-.13-2.62-.16-3.93a19,19,0,0,0,2.21-3.43c1.19-.85,2.51-1.63,2.92-2.88.59-1.82-1.06-1.81-.47-3.64.06-.2,3-3.5,6.36-6.92,4.7-4.33,9.4-8.86,14.22-13.48,10.83-9.75,23.35-19.38,37-21.67,6-1,22.86-15.32,27.38-13a6.41,6.41,0,0,1,2,2.89,22.44,22.44,0,0,1,1.07,6.36c-1.29,1.72-7.64,3.48-8.19,5.19-.68,2.1,0,10.11-.84,12.75l-.22.54a78.14,78.14,0,0,1-4.72,7.64c.13-1.44.36-3.36-.92-4.71-6.95,18.3-19.17,25.82-26.07,47.93.9-1.22,1.85-2.48,2.83-3.76v.1c.58-.75,1.16-1.55,1.72-2.34,6.18-8,13.43-16.7,19.25-23.61,0,0,.3.09.7.7v.21c-.66.21-.92.89-1.46,1.59l-1.09,3.38c4.45-3.07,11.39-9.09,12-10.92s-.11-4.74.48-6.56c1.36-4.2,13.9-12.41,14.16-13.23.59-1.82-1.41-5.81-.82-7.64s5.29-3,6.32-5.23c7.24-14.41,18.68-21.1,19.17-22.66.8-2.46-2.87-7-3.77-7.44a2.86,2.86,0,0,0-3.29,0c-.26-.86-.12-.91.47-2.73l15.11-26.35a56,56,0,0,0,2.36-10.37c.81,1.3.95,4,2.72,4.86,2.39,1.21,18.82.41,20.42-4.52,1.27-3.92-1.89-8.19-4.72-9.62-1.77-.91-7.9-1.43-12.84-2.09A26.18,26.18,0,0,1,346,48l-.78.3-.9-.45-.05-1.16c.83-3.33.2-7.41.41-11,15.26-5.16,15.35-9.7,27-3.88.3.17.76.45,1.33.8,3,2.07,10.11,7.55,11.64,8.33,4.68,2.37,18.93,6.41,21.47-1.44,1.75-5.38-6.25-20.61-10-28-4.22-8.31-6-6.86-10.14-9C384.2,1.64,380.5-.2,377.51,0V0c1.65-8,.08-21.9.58-30.8l2-6.2c.36.94.1,1.35-.35,3.12l3.33,1.69,1.12-3.44c-.93-.58-2.11-1-2.39-1.91A27.58,27.58,0,0,0,382-48c.09-2.29.19-4.5.24-5.83l-6.34,1-.77,2.38c-.37-.31-1.6,0-2.17.48a11.44,11.44,0,0,0-.05-2.38L358.39-50l.09.11c-2.52,7.4-4.07,5.07-3.8,7.16a8.17,8.17,0,0,1-1.92,1.32l-2.87-1.45L349-43.95l-.6-1.45s-2.2-1.09-4.67-2.2l-14.22,2.3c2.21,2.39,3.66,5,3.5,8.17l5.32,2.7,1.3-.5c1,.38,2.13.79,3.46,1.26a2.78,2.78,0,0,1-.21,1.19c-.59,1.83-2.83,3.67-3.42,5.49a9.83,9.83,0,0,0-.4,1.75l-.43.8c-.64,2,.35,4.44,2.09,6.91a34.37,34.37,0,0,0,12.89,13c1.77.89,6.61,0,8.37.85S365-.48,366.72,1A6.68,6.68,0,0,1,362,.69c-2.61,7.69-7.84,8.55-9.28,13l-.07.33-.05,0,0,.07c-.28,1.66.82,3.31,1.81,4.31l-.24.09c-.32.09-.13.1-1.6-.64C350.8,17,348,13,346.19,12.12c-12.47-6.32-16.51,7.93-29.31,6.74-2-.15-5.27,2.09-7,1.2s-.69-1.83-1-3.91c-1.71-.27-3.39-.56-5.05-.88-4.21-2.07-10.62-4.36-15.45-3.51a113.76,113.76,0,0,0-20.42-3.3c.46,1.47.67,1.69,2.45,2.6a23.2,23.2,0,0,0,7.82,1.43c.43.15.85.31,1.31.52l.48-.7a4.51,4.51,0,0,0,2.36-1.13c.2.83,2.36,2,2.36,2s.44-.21.4.47a9.08,9.08,0,0,1-5.84,4c-7.66-.61-20.52-9-25.18-8.51-.4,0-.88.07-1.39.08-1.81-.12-4-.17-6.15-.24a46.65,46.65,0,0,1-7.33-1c-4.6-2.33-2.12-6.18-7.78-9C219.7-6.95,176.47-8.76,167-9.86c-.64-.33-.64-1.61-.21-3.43l-3.71-.77c1.11,2.46,2.94,1.77.9,5.12l5.14,2.61c2.37,1.29,45.82,8,46.09,8.16,1.35.68,2.9,1.46,4.46,2.4,1.47,1.1,3.11,2.33,4.73,3.43a16.57,16.57,0,0,1,3.53,4.52c-4.05,3.74-19.81,9-20.16,8.83-1.78-.91-2.29-2.74-3.42-2.16.49,1.4,1.64,1.25,2.23,1.52.38.95.59-.09,0,1.74l-.12.2c-2,.67-3.67,1.21-4.71,1.53a5.14,5.14,0,0,0-1.19.31c-.25-.85.22-2.31-.46-3.63-3.3,1.17-7.18-3.51-7.37,1.1l-.39.14A133.81,133.81,0,0,0,173,17.31c-7.87-1.12-14.24,2.07-20.7,2.62-3.06.25-17-6.75-19.33.56l-.07.25,0,.11-.07.33c-.71,2.79-.07,5.14,2.07,6.21,1.73.88,17.06-1.14,19.31-.36l.25.1c1.6,1,8.63,9.91,8.16,11.35-1.12,3.47-8.87,1.29-12.93,1.82a3.87,3.87,0,0,0,.4,2.45c4.5-1.22,11.75,3.88,12.84-3,1.11.71,4.15.55,5.92,1.45l16.81,8.52c1.76.9,3.74,5.29,3.16,7.12h0c-.44,1.33-3.19,3.35-5.93,4.8a34.1,34.1,0,0,1-6.32,1.22c-1.39-1.05-2.38-2.85-3.3-3.78.73-.11,1.44.25,2.59-.38,0,0,.34-1-1.44-1.94s-3.47,0-5.42.22a8.25,8.25,0,0,0,4,3.09c-1.49.82-3.24.29-4.17.07l.91,2.24c-11.56-1.4-42.54-3.52-46.94-3.6l-.5-.06,0,.07h-.06c-.9,2.82.94,5.77,2.73,7.42l.81.77.25.07.46.28c8.92,4.53,18.54-.24,29.67,3.76l0,0c-6.39,2.21-16.87,2-23.6,4.83l-.17,0,0,0-1,.47,2.36,1.2c5.28,2.8,25.42-3,30.73-4.25l-1-2.18c3.79-.19,71.47.07,77,2.86,1,.49,8.43,10.86,8,12.14-.85,2.65-7,4.52-7.55,4.25-1.77-.9-4.6-4.88-6.38-5.78-14.59-7.41-21.09,2.71-36.88,1l-.67,2,.35.17-.58.33c1,.72,0,1.08,1.79,2a4.76,4.76,0,0,0,3.19-.11c2.59,1.29,2.67,1.39,4.36,2.25S212,97.12,213.76,98c9,4.58,17.18,3.58,25.11,1.1,6.64-1.55,13.25-4.36,20-7a49.05,49.05,0,0,1,4.91-1s.47.12.93.9c-.76.17-1.59.51-3,.85l-1.11,3.44c2.71-.43,4.67-1,6.45-.12s2.71,3.08,4.47,4c.58.3,2.5.32,4.72.17a8.15,8.15,0,0,0,6.2-.8,8.91,8.91,0,0,0,2.29-.71c-.7-5.59-3.29-6.38-5.41-7.45-3.36-1.71-8.23-.4-11.53.1-.29-.88-.51.16.08-1.66s13.66-5,16.41-3.59c1.77.9,1.4,2.17,1.83,4.32,1.18-.29,1.55-.78,3-.15,1.78,1.45,3.69,3.2,4.5,5.14a5.88,5.88,0,0,1,.14,3.37c-.42,1-1.67,2.18-3.49,3.44a10.58,10.58,0,0,0-.08-3.78c-1.29,1-2.76,1.47-3.57,2.64l-.18,0,0,.13-.31.67a2.08,2.08,0,0,0,.48,2.53l-.55.31a15.34,15.34,0,0,0-7.73,1.78c-4.51,2.81-12.47,8.66-19.53,9.36-2.05,4.9-3.9,7.11-9.71,9.78C237.56,131,199,164.53,196,167.36l0,0-.18.18c-.6,1.81-.62,2.61.45,3.69h0c-.74.11-1.57.46-2.95.79l-1.12,3.43c1.79-.06,1-1.17,2.8-.27s1.29,2.37,2.15,2.76c1.09-.39,1.15-2.78,2.92-1.88s.8,2.06,1.89,3.08c-1.35-.22-4.36.76-4.95,2.58s0,2.87.7,4.19C200.79,184.85,206.29,183.52,206.87,181.69Z"/><path class="cls-18" d="M294.54,162a9.31,9.31,0,0,1-.57,5.22c-.59,1.84-8.65,11.46-9.24,13.27l-4.67,14.44c-.59,1.82-6.08,8.6-6.68,10.43L267,225.09c-2,.82-3.48,1.89-4.4,1.3.49-1.64,1-3.23,1.43-4.79a60.94,60.94,0,0,1,1.82-8.07,3.17,3.17,0,0,1-2,1.67c1.35-3.57,10.22-14.45,11.22-17.54l7.15-22.1C283.26,172.28,290.94,162.19,294.54,162Z"/><path class="cls-19" d="M260.14,138.52l.88-2.73,4.64,1.49C264.39,138.77,262.53,138.86,260.14,138.52Z"/><path class="cls-20" d="M263.54,144.08c-2.69,1.68-8.35,8-12.53,5.77.41-.54,9-8.83,10.76-7.93S263,142.69,263.54,144.08Z"/><path class="cls-21" d="M245.17,155.54c1.22-1.62,2.74-3.51,5-4.16C250,154,246.82,155.27,245.17,155.54Z"/><path class="cls-22" d="M241.29,158.84A22.13,22.13,0,0,1,238.4,162,3.45,3.45,0,0,1,241.29,158.84Z"/><path class="cls-23" d="M195.78,186.7a3.71,3.71,0,0,1,.17,3.21c-1.07.46-3.19-.62-3.95-.45.45.77,1.65,2.54,1.06,4.36-.68,2.1-5.49,7.78-10.72,8,.62-.53,1.19-1.05,1.72-1.56a4.28,4.28,0,0,1,.14-2.05c.58-1.75,2.89-1.84,3.58-2.33a11.82,11.82,0,0,0,1.38-2.8c.6-1.83,0-2.24-.45-3.67C191.55,188.87,193.61,187.41,195.78,186.7Z"/><path class="cls-24" d="M191,171.62A31.51,31.51,0,0,1,180.84,180l1.34-4.13C185.06,174.36,187.74,172,191,171.62Z"/><path class="cls-25" d="M205.13,128.51c1.77.9,1.74,1.86,2.71,4.34-1.09.57-3.34.78-5.79.81a11.88,11.88,0,0,1-5-.13,43.48,43.48,0,0,1-4.65-.46l-3-1.52,1.13-3.51C195,130.18,200.53,126.17,205.13,128.51Z"/><path class="cls-26" d="M216.34,101.48l-22.67,5.06c-.67-1.31-.92-.89-.33-2.72.23-.73,18.67-5.84,20.53-4.89S215.85,100.07,216.34,101.48Z"/><path class="cls-27" d="M184.21,190.61c-.58,1.82-.65,1.66-1.9,2-.43-.91-1.83-6-3.52-6.9-.15-.07-6.77,3.44-12.51,6.31-3.15,2.31-6.06,4.34-7.75,4.58A15.69,15.69,0,0,1,160,195c-1.37.57-2.19.83-2.09.52.48-1.49,7.46-6.63,13.84-10a20.89,20.89,0,0,1,4.54-2.09c2.24-.85,4.1-1.2,5.1-.68C183.33,183.79,185.16,187.68,184.21,190.61Z"/><path class="cls-28" d="M155,169c-1.13.56-1.88.72-2.3,1.66-1.7-.73-2.84-1.43-4.62-1.37l.87-2.7c1.4-.34,2.17-.85,3.93,0S154.47,167.57,155,169Z"/><path class="cls-29" d="M159.7,139c-3,2.7-6.2,1.59-10.64,0,.66-.68,7.18-3,8.86-2.11S159.2,137.65,159.7,139Z"/><path class="cls-30" d="M176,85.88a2.72,2.72,0,0,1-.78,1.17l1,.83c-2,.28-4.37.8-6.14-.09s.11-1.64-1.65-2.54-2.6.38-4.89-.9l1.37-4.25c1.5,2.16,2.18,1.89,4.52,3.06,2.12.28,4.11.42,5.14,1C176.35,85,176,85.88,176,85.88Z"/><path class="cls-31" d="M160.42,126.46c-11.34,9.24-20.16,9.6-33.54,9.82,2.08-1.21,26-14.71,31.4-12C160.05,125.21,159.46,125.76,160.42,126.46Z"/><path class="cls-32" d="M134.93,121.33a97.32,97.32,0,0,1-15.14,4.72c-.67-1.31-1-.53-.45-2.35s12.39-5.2,14.16-4.3S134.93,121.33,134.93,121.33Z"/><path class="cls-33" d="M117.69,126.22c-2.8.87-9.48,3.51-12.29,2.55,3.22-2.25,9.1-5.4,10.87-4.51S117.69,126.22,117.69,126.22Z"/><path class="cls-34" d="M109.9,142.49c-1.28,1.46-3.55,2.25-5.22,1.14C106.77,142.53,108.24,141.45,109.9,142.49Z"/><path class="cls-35" d="M96,147.37,85.1,151.83c-.68-1.33-1.06-.54-.47-2.37C84.63,149.46,93.47,146.19,96,147.37Z"/><path class="cls-36" d="M80.4,159.93c-1.64,1-7.75,4.5-11.6,2.95C73.11,161,77.74,157.88,80.4,159.93Z"/><path class="cls-37" d="M76.86,142.91c-19.62,7.43-43.27,16.31-65.16,18.31C25.89,155,69.77,138.1,75.43,141,77.2,141.87,76.86,142.91,76.86,142.91Z"/><path class="cls-38" d="M38,42.91l-5-3.78c9.29,0,26-.06,27.75.84s2.21,3,2.72,4.32C55.12,51.06,48.64,42.29,38,42.91Z"/><path class="cls-39" d="M10.84,82.81l3.27,1.66C11,89.27,4.82,86.64.34,88.32l-4-2C-1.15,83.27,6.24,84.87,10.84,82.81Z"/><path class="cls-40" d="M66,13.87c11.18,5.53,17.31,1.84,23.49,5l7.26,3.68L95.63,26a51.26,51.26,0,0,1-6.36-1c-4,.33-7.84-1-11.63-2.54a45.05,45.05,0,0,1-7-2.14L65,17.45C64.41,16.21,65.57,14.8,66,13.87Z"/><path class="cls-41" d="M134,32.55a8.73,8.73,0,0,1-6.13-1.31c1.15-.73,2.62-1.81,4.39-.92S133.52,31.1,134,32.55Z"/><path class="cls-42" d="M108.23,51.2a4,4,0,0,1,1.2-.58l-.2-.12.61,0c4.83-1.45,17.66-2.15,21.33-.29,1.77.89,2.58,3.13,3.06,4.54a10.41,10.41,0,0,1-2.74.47l-.06.12-.79-.06c-6.39.27-17.17-1.32-17.94-1.8l-2.13-1.07h-.11v-.06Z"/><path class="cls-43" d="M303.46-2.26c2-.29,4.74-.63,6.51.26s2,1.14,2.48,2.53c-1.13.58-2.79.6-3.9,1Z"/><path class="cls-44" d="M413.09,20.36c.15,2.24-1.4,2-2,3.84s1,1.82.47,3.64a3.27,3.27,0,0,1-2.67,2.4l-1.83-.94-.81-.33-.7-.43-1.35-.68,2-6.24c.54-1.85,4.12-4.9,6.35-5.59.43,2.14-.08,3.48.12,4.31a36.67,36.67,0,0,1,4.49-3.68c.74,1.35,1.46,1.71,2,2.93l-.79,2.48-3.24,1.19A14,14,0,0,0,413.09,20.36Z"/><path class="cls-45" d="M414.17,44.29c2.37-.68,5.49-2.53,9.14-2.33-1.36,3.12-4.55,4.41-5.79,7.92l-2.29-1.16-.09.06-.07-.14-2-1Z"/><path class="cls-46" d="M381.28,94.9l3.9-6.46c-4.4-.19-6.51,1-7.9,2.79l-.24.3,0,0-.42.6,0,.1c-1.44,2.34-2.22,5.17-5.2,6.79C375.53,99.61,379.86,97.51,381.28,94.9Z"/><path class="cls-46" d="M287,38.8l5.51,3.39c-.14-3.32.94-3.53,2.7-6.44,2.33-1.83,4.6-3.42,5.37-4.7,1.33-2.21.12-2.86.12-2.86a4.57,4.57,0,0,0-2-.64l.47-1.59c-2.63,1.14-6,2.35-7.35,4.56s1.62,1.6.29,3.81S288.59,35.83,287,38.8Z"/><path class="cls-46" d="M195.54,12c3.62-.27,44.81-3.73,48.87-10.47,1.32-2.21.11-2.36.63-3.78C223-3.55,211.93,2.47,195.54,12Z"/><path class="cls-46" d="M218.84,24.54c1.34-2.2,0-3,0-3-7.88,1.4-14.39,3.5-22.62,6.14.39,1.84-.77,1.31,1.59,2.75S217.51,26.75,218.84,24.54Z"/><path class="cls-46" d="M193.56,32.05c1.33-2.22,0-3,0-3-4.2,1.14-14.67,3.27-17.19,6.3C182.25,35.28,192.23,34.25,193.56,32.05Z"/><path class="cls-46" d="M162,20.52c3.54-.39,6.29-.34,7.35-2.62C166.46,17.33,163,18.17,162,20.52Z"/><path class="cls-46" d="M148.07,23l-17.21,3.3c.36,1.86-.8,1.33,1.57,2.78C132.43,29.07,146.1,26,148.07,23Z"/><path class="cls-46" d="M117.83,21.37c-2.87.18-13.47,1-16.73,5.38C108.07,25.6,116.46,25.4,117.83,21.37Z"/><path class="cls-46" d="M129,41.47c-30.5,6.6-67.2,14.62-95.51,28.47C56.27,66,124.71,51.56,129,44.51,130.3,42.29,129,41.47,129,41.47Z"/><path class="cls-46" d="M191,155.34h11.9c-.26-.93-.64-1.8-.9-2.56C197.12,152.5,193.73,153.55,191,155.34Z"/><path class="cls-46" d="M85.68,153.26l-1.25,2.08h8.75c3.3-1.65,6.75-3.45,10.2-4l2.46-4.09C97.7,144.57,92.62,151.74,85.68,153.26Z"/><path class="cls-46" d="M250.7,153.85a23.87,23.87,0,0,0-2.52,1.49h11.15L262,151l-4.46-2.73A68,68,0,0,0,250.7,153.85Z"/><path class="cls-46" d="M291.81,119.44c2.05-.08,4.81,0,6.15-2.25s.84-1.72.08-3.55A11.61,11.61,0,0,0,291.81,119.44Z"/><path class="cls-46" d="M274.52,92.12l-.17-.07-.91.63c-8,4.37-19.61,13.83-20.1,14.88l-1.61,2.65-.12.08,0,0L250,113.13a6.81,6.81,0,0,0,2-.26l-.13.26.76-.43c7.15-2,23.33-10.6,26.09-15.18,1.33-2.21.29-5.1-.4-6.9A16.8,16.8,0,0,0,274.52,92.12Z"/><polygon class="cls-46" points="495.57 146.73 495.89 147.67 496.24 147.15 497.28 147.79 500.57 142.31 497.13 140.18 492.76 145.01 495.57 146.73"/><path class="cls-46" d="M298.13,6.55c1.34-2.21,1.11-2.17.43-4-1.89.22-2.95.61-4.31-.05-1.39,2-2.14,3.53-4.35,4.77l3.5,2.14C295.41,8.78,296.79,8.76,298.13,6.55Z"/><path class="cls-46" d="M296.41,75.07c2.37,1.46,19.72-3.64,21-5.86s0-3,0-3c-7.87,1.39-14.39,3.5-22.61,6.13C295.21,74.16,294,73.63,296.41,75.07Z"/><path class="cls-46" d="M231,73.75s13.67-3,15.65-6.09L229.47,71C229.84,72.83,228.67,72.29,231,73.75Z"/><path class="cls-46" d="M216.44,66c-2.87.18-13.46,1-16.73,5.38C206.68,70.28,215.07,70.07,216.44,66Z"/><path class="cls-46" d="M227.57,86.14c-30.49,6.6-67.19,14.63-95.51,28.47,22.83-3.9,91.27-18.37,95.53-25.43C228.92,87,227.57,86.14,227.57,86.14Z"/><path class="cls-46" d="M846.81,130.41c-1.93-2.39-5.39-3.63-9.33-4.62.46,2.5,3.09,5.82,6,5.94S845.12,131.65,846.81,130.41Z"/><path class="cls-46" d="M838.35,148.83c-1-2.93-2.21-5.56-3.49-6.69-3.28,2-4.71,2.24-5.34,4.65-1.17,4.48,2.59,8.48,4.35,12.58-1.57-1.15-3.42-2.37-5.35-3.63-6.5-6-14.3-12.81-14.25-13,.61-2.3,7.63-5.65,8.8-6.45-1-1.39-.8-1.52-3.72-1.64h-.65a9.33,9.33,0,0,0,2-6.77c.14,0,.26,0,.42,0a21.66,21.66,0,0,1,4.68.76c1,.67,2.05,3.42,4.86,3.54a7.84,7.84,0,0,0,3.09-.48c1,.48,1.95,1,3,1.56C834.26,127,824,123.09,820.59,123a5.84,5.84,0,0,0-1.7.18c-2.45-3.49-7.11-5.71-12.73-4.4-.72-.91-1.5-1.91-2.31-2.91-.05-4.55-5.92-8.1-12-4.89-.35.19-.67.39-1,.59a33.66,33.66,0,0,0-5.38-1.36c-1.74-1.16-3.41-2.5-5.41-2.57-2.94-.13-2.27,1.85-5.2,1.73-.16,0-1.72-.62-4-1.59a6.11,6.11,0,0,0-.78-1.64,6.7,6.7,0,0,0-1.1-1.25l.11-.41.89.75a46,46,0,0,1,2.18-5.29l.46,0a3.19,3.19,0,0,1,.08,1.32l5.61.24c-.73-2.79-2.9-5.46-5.25-8.57a18.94,18.94,0,0,0,.53-2.91c3.12,4.26,11.67-.46,8.71-4.79-2-3-7.49-2-9,1.3a9.48,9.48,0,0,0-2-3.55c4.63-3,6.32-6.87,6-10.39,5,4,10.12,8.68,12.42,13.62,7.36.81,11.34,2.15,16.75,7.07-2.83-.05-6,1.65-6,4.75,0,5.47,10,4.49,10.27-.89,2.82,2.3,6.73,5.07,11.32,8.12-3-.43-6.8,1.29-6.81,4.67,0,5.56,10.31,4.47,10.3-1.08a3.48,3.48,0,0,0-.34-1.53c16.26,10.52,39.06,23.52,53.05,31.3V123.83c-1.83-.79-3.88-1.7-6-2.65-8.26-4.25-16.81-8.44-25.54-12.75-10.42-5.5-21-11.65-29.82-18.74a9,9,0,0,0,1.3-1.48c.44,11.08,10.66-10.07,1.06-2.14.71-2.3,6.52-6.94,7.89-10.8,2,2.73,12.42,8,15.08,9.2a4.3,4.3,0,0,0-2.23,3.73c0,5,8.39,4.61,10,.4a35.71,35.71,0,0,0,3.5,1.3,10.91,10.91,0,0,0-3.3-3.5c-.57-3-4.46-3.58-7.28-2.3.71-5.47-10.19-10-13.61-12.59-1.29.73-1.68.64-2,1.34-.47-1.48-2.2-2.68-6-3.32-3.8-8.15-19.64-1.25-15.18,6.64a5.63,5.63,0,0,0-2.75-.28,49.28,49.28,0,0,1-3.26-5c-1-1.76-3.55-4.11-6.79-6.72,1.21-.8,1.91-2.15,1-3.43-1.23-1.7-3.82-1.13-5.09.2C780.7,54.38,770.35,47,770.08,42.87A145.26,145.26,0,0,0,791,45c-2.15-.69-4.4-1.41-6.67-2.18l.14,0c-1.34-.45-2.74-.88-4.12-1.31q-3.52-1.2-7.13-2.47l.36-.24a38.33,38.33,0,0,1,9-3.35c3.05,1,8.15,8.07,10.9,8.18,3.37.14,14.93-3.29,19.18-3.12l.88.1c2.29.33,7,1.53,13.16,3.22-2.08.28-4.84.63-6.38,2.38-1.91-2.77-5.44-4.63-10.71-4.3A16.28,16.28,0,0,0,800.83,45c-1.43-.4-2.83-.81-4.18-1.26A6.83,6.83,0,0,0,793.39,45c1.22,2.56,2.65,3.5,4.28,3.86-3.38,7,1.31,16.46,6.93,14.57,14.59,2.89,20.44-9.8,15.87-17l2.7.26a2.52,2.52,0,0,0-.27,1.14c0,3.27,5.84,2.75,6.19-.35,17.73,2.8,31.1,8.82,49.27,12.28V54.52c-10.6-3.8-21.3-7.83-30.31-11.26,0,0,0-.4.76-1.07l.31-.06c.57.72,1.67.81,2.93,1.23l5.43.23a112.64,112.64,0,0,0-18.16-10.12,2.39,2.39,0,0,0,.26-1.14c0-3.35-6.21-2.7-6.22.68,0,0,0,0,0,.07-1.67.35-3.42.84-5,1.05-1-2.54-5.43-4.19-8.23-2-2.42-1.13-5-2.6-7.55-4.09,4.87,1.45,9.36,2.69,11.67,2.88-.66-1.2-2.18-1.55-3.26-1.87a110.77,110.77,0,0,0,12.64-.42l7.66.18c.5-1.31-1.67-2.72-3.67-4.88l-31.75-1.31a18.85,18.85,0,0,1-3.21-.66,4.52,4.52,0,0,0-1.08-.5,4.64,4.64,0,0,0-.63,0C796.21,20.14,789.83,18,787.83,18l-9.75-.4a5.27,5.27,0,0,0-.41-5.52c-3.66-5.47-12.63-2.55-15,2.32l-.73-.27c.78-10.39-4.17-20.42-14.6-26.2a7.74,7.74,0,0,0,.39-1.63,15.23,15.23,0,0,0,6.94-2.32v0c13.3-7.8,5.06-20.13-6.37-19.4-2.81,3.78-11.47,2.51-13.24,9A108.68,108.68,0,0,1,723.54-30c.3-2.26-.08-4.28-1-5.08,5-2.44,11.06-3.82,13.27-10.58a19.31,19.31,0,0,1-5.93-.15c-2.63-.92-5.67-2.2-8.66-3.33a46.34,46.34,0,0,0-5.09-2.44l3.23.12.06.05v0l1.32,0c.59-1.81.54-4.3.8-6.46A7.3,7.3,0,0,0,725-64.06c4.14-2.66,3.82-4.5,1.55-5.45,3.89-4.66,9.65-6.56,17.85-6.23,20.51.86-.44,13.68,15.84,14.35.53,0,5.34-1.74,12.06-4.29l1.84-.09s.93.06,1.64-1.23c4.06-1.54,8.59-3.28,13.21-5,4.92-.3,9.31-2.67,13.79-5.26,10.29-3.9,18.68-7,19.7-6.94,2.93.12,24.22,4.92,27.14,5,9.72.4,11-3.25,12.16-6.46A16.86,16.86,0,0,0,863-88.31a4.43,4.43,0,0,1,3.77-1.86l2.56.29c1.2.59,1.08,1.76,3.35,1.84a11.77,11.77,0,0,0,5.7-1.46v-7.32a5.27,5.27,0,0,0-2.61-.87C867-98,822-94,809.88-91.21c-4.57,1-11.18,5-14.12,4.89-6-.26-13.45-3.86-22.17-5-1.76-1.71-2-4.77-4.89-4.89s-10.23.55-13.15.43c-.15,0-2.81.7-6.53,1.71a263.62,263.62,0,0,0-26.67,6.91c-.47,0-.93,0-1.4,0a3.24,3.24,0,0,0-1.37-3.72c-3.39-2.5-8.16.3-8.79,3.37l-.24,0a34.49,34.49,0,0,0-7.82,2.56,15.41,15.41,0,0,1,.3-2.15c-1.34-.13-2.57-.22-3.81-.28l0,0,0,0c-1.28-.06-2.51-.1-3.87-.12-1.09,1.22-.82,2.91-.17,4.68a2.71,2.71,0,0,0,.69,2.16,18.61,18.61,0,0,0-5.89,7.33l-.12.22,0,.2-.1.28c-.63,2.42,1.08,4.94.49,8.25a15.84,15.84,0,0,1,13.05,2.12l1.15,11c-6.12-1.7-18.74-10.33-21.69-10.45-6.29-.26-14.13,6.5-15.31,11.1-3.74,14.4,12.19,19.89,24.11,26.18-.28.72-3,2.07-3.62,4.49s1.35,4.21,2.36,6.18l.71-.14a24.33,24.33,0,0,0,6.2,3.64c-2.32-.58-9-.79-7-2.26,21.51-16.7,6.2-30.7.86-29.77l-3.59-2.31c.41.48-1.34.17-.9.77-1.29.63-13.69,5-15.26,5.38-1.18-5.15,1.51-.82-3.59-4.61,1.35-3.69-5.85,12.8-10.31,10.08-4-2.48-13.71,1-20.77,4.7-1.82-3.1-4.25-6.89-6-10.33,2.81-4.6,5.84-4.93,4.64-13.49,13.23,1.58,27.88,4.18,35.2-8,2.54-4.2,1.54-13.59-3.55-16.7-1.22-.75-6.12-1.11-11.41-1.53a5.53,5.53,0,0,0-.2-1.87l-.26-.16c2-.71,4.4-1.63,7.17-2.68l.72,0c.07.08.14.15.2.23.06-.09.13-.16.2-.25l.73,0s.92.06,1.63-1.22l13.22-5c4.75-.29,9-2.52,13.33-5a20,20,0,0,1,1.58,2.72l4.86.19.17.11.13-.09,3.77.16a24.82,24.82,0,0,1,2.07-5.31c1.25-1.24,2.52-2.55,3.76-3.87a20.12,20.12,0,0,1,3.82-1.1c2.93.12,24.21,4.91,27.14,5,9.72.4,11-3.26,12.15-6.46a17.28,17.28,0,0,0,1.19-2.64,4.41,4.41,0,0,1,3.78-1.86l2.56.29c1.2.58,1.07,1.75,3.34,1.83,2.94.13,7.54-1.63,8.18-4s-2.15-5.47-5.08-5.59c-6.18-.25-30.2,1.66-48.15,3.8.19-2-1.51-3.1-.94-5.32.16-.6,39.21-23.18,40.11-26.7.64-2.42-1.79-3.45-3.71-4.31a14.27,14.27,0,0,1,.71-1.93c.91-.67,1.91-1.34,2.88-2l.5,0c2.93.12.08,1.95,3,2.08,7.18.3,7.69-3.88,9.91-7.89,1.39-1.51,2.69-3,3.78-4.26a12.69,12.69,0,0,1,2.08-1.14l.75-2.89.32-.73.23-1.37.88-3.38-6.13-.26c-.72-1-.76-.12-.13-2.53,4.83-18.63,74.08-38.86,76.63-48.66.63-2.42-1.34-4-.73-6.38l.25-.53c1.33-2.48,7.56-6.36,11.75-9.16a4.29,4.29,0,0,1-.87-2.51c-34,19.44-64.84,41.59-97.48,55.58,0,0-1,.92-.38-1.5s2.61-.87,3.24-3.29-1.8-2.87-2.64-3.55c14.91-11.15,33.14-21,42.1-37.23,2.3-4.32,11.51-5.36,15.72-9,2.66-2.31,2.92-5.78,4.18-8.66a110.1,110.1,0,0,0,15.47-13.55c3.07-2.24,6.29-4.56,9.68-7.1a3.2,3.2,0,0,0-1-2.54c-10.61,4-28,14-37.22,16.09,0,0-1.06.89-.43-1.52s3-2.6,4.79-4.82c-3.19-2.37-3.73-5.38-6.71-6.19a51.84,51.84,0,0,0,6.55-7.26h-29c-5.94,7.14-11.58,15.13-18.74,21.55l-5-.2,0-.05c5.95-3.84,12.9-15.44,14.94-21.3h-25c-2.3,2.59-4.77,4.89-8.87,5.21l-12.14,12.55-.59,2.27a22,22,0,0,1-4.37,5.82,21.3,21.3,0,0,1-4.26,1.43L706.6-233l-4.74,4.9L691.65-217.6h0l-6.1,6.31c1.49-.8,3-1.59,4.56-2.37-2.86,7.57-5.18,15.22-8.27,22.9a22.31,22.31,0,0,1,2-3.43c-1.3,2.59-2.71,5.16-4.25,7.71a25.69,25.69,0,0,0,5.24-7.09c-.08,7.94,10.89,27.83,20,28.21,7.2.29,49.67-24.06,56.42-27.14a50,50,0,0,0-4.09,4.46c-5.21,4.58-8.73,10-13.49,14.77a37.72,37.72,0,0,1-5.2,3.55c-12.13,6.81-22.16,15.73-27.87,24.47a18.75,18.75,0,0,0-3.74,6.37l-.09,1.12c-.24.68-.46,1.35-.65,2-.74.26-1.47.49-2.19.72l-1-.12c-1.13,0-3.66.88-6.38,2.16-3.81,1.09-6.9,2.39-8.73,5.39l-.77,1.09,0,.38-.52,1.56c-1.29,5-2.77,6,6,11.48.91-.57,1.89-1.21,2.88-1.88h.25l.51-.53c3.7-2.6,7.23-5.58,7.71-7.39.62-2.42-1.71-2.52-1.09-4.93.58-2.25,3.08-4.22,4.24-5.82.06.64.15,1.3.22,2,0,3.5.4,7.92-.09,9.88-4,15.29-16,4.55-20.38,15.13a8.47,8.47,0,0,0-.56,1.59l0,.15-.1.34c-.09.33-.16.64-.22.93h-.32c-4.15-.18-9-2-14.42-3.41l.24-.95c-1.54-.19-2.08-1-3.56-2.2l-.88,1.67a24.24,24.24,0,0,0-2.37-3c-2.44-2.62-6.53-3.78-9.4-6-.77-1.09-1.56-2.17-2.35-3.24,3.83-2.46,7-5.79,7.76-8.83.39-1.49-.33-9.23-.79-15.47a6.7,6.7,0,0,0,2.26-2,8.73,8.73,0,0,1-.91-6.42v-.08a8.73,8.73,0,0,1,1.83-3.52c1.08-1.78,1.88-3.28,2.68-4.59.84-1.1,1.74-2.25,2.65-3.43a14.87,14.87,0,0,1,4.21-2.72c.25.95.52,1.94.81,2.95l-2.75,4.57,3.45-2.14c1,3.42,2.1,7,3.15,10.35-.67,4-.22,9,4.62,9.24l.28,0,.31.05c3.6.15,6.14-2.29,8-5.39a36,36,0,0,0,6.34-11.13,5.27,5.27,0,0,0-.35-3.65l.16-.65-.54-.08a7.13,7.13,0,0,0-5.6-3.22c-7.28-.3-10.57,5.71-12,9.71v-21.08a27.28,27.28,0,0,0,3.08-4.64c.56-2.17-1.56-2-2.59-2.44l-.49.78v-25.25l-3.39-2.07-1.86,3.1-.85,1.19-.31.73-1.59,2.64a8.54,8.54,0,0,1,.76,2c-.13,1.59-.21,3.4-.26,5.3-1.23,4.08-3.76,7.46,1,10.83-.15.34-.31.67-.48,1-2.18.93-3.87,3.31-5.47,5.08-.89.47-1.67.82-2.21,1.12a.13.13,0,0,0,0-.06,12.45,12.45,0,0,1,1.75-.93l.75-2.89.31-.73.23-1.37.88-3.39-4.19-.18-1.22,1.27a76.12,76.12,0,0,1,1.82-28.3c-1.15-.18-2.65-1.46-3.84.52-1.34,2.22-4.08,32.61-5.41,34.82s-17.14,15.53-18.46,17.73a9.52,9.52,0,0,0-1.13,3.15l-9.82,10.15c-2.21-.87-4.5,1.1-7,1.47-1-.48-2-.92-3-1.32l.72-2.21c-2,.13-3.08.5-4.42-.16l-.52.86c-5.34-1.73-10.42-2.9-13.77-4.95-.08-.05-.16-.12-.24-.18.17-.26.35-.53.53-.83l.17-.32L598-157a8.84,8.84,0,0,0,.77-1.54C603.33-169,585.93-167,594.34-181c1.09-1.78,4.69-5,7.36-7.73.57-.49,1.14-1,1.66-1.43-.3,1.85.16,4.7-1.08,6.76s-3.22,1-4.55,3.26c-1,1.66-.49,5.83.43,9.8v.69l.2.12c.26,1,.54,2.05.83,3,10.89.39,10.55-1.24,13.28-5.77l.77-1.48.3-.29.22-1.25c.83-3.3-.59-5.93-2.72-8.79-1.16-2.43-2.43-4.47-3.34-5l-.87-.44c-.39-.55-.78-1.12-1.16-1.71.35-.62.69-1.26,1-1.91l.79-.92a17.62,17.62,0,0,0,1.88-6.92c2.13-9.8,1-22-3.26-33.71a27.92,27.92,0,0,1-1.37-5.49c-.15-6.18,1.24-12.28.63-18.59a38.86,38.86,0,0,0,.18-5.62c2.92,6,17.61,47.26,23.42,50.82,7.34,4.5,30.82-5.17,36.72-11.38a22.07,22.07,0,0,0-1.25,8.27q1.08-4.19,2.49-8.23a20.45,20.45,0,0,1-1,3.74c3.38-7.6,7.33-14.77,10.79-22.15q.93,2.13,1.77,4.24V-275.6H604.19c.8,3.36,1.58,6.69,2.22,10-1.17.09-3.4-.84-4.72,1.37s1.36,2,0,4.26-1.42,1-1.42,1c-2.83-5.35-5.38-10.89-7.74-16.59h-9.76c2.57,8.27,3.4,15.5.61,20.13-1.32,2.21-.73,1.54-2,1.9l-4.95-3-1.87,3.09-.85,1.19-.3.73-1.59,2.64a9.85,9.85,0,0,1,.76,2c-.13,1.59-.22,3.39-.26,5.3-1.3,4.28-4.05,7.8,1.76,11.35,2.37,1.45,1.53-1.48,3.9,0l.36.28c.25,1,.52,2.09.73,3.09a16.22,16.22,0,0,1-.91,1.87c-2.14-.34-4.79-.82-6.12,1.39-2,3.21,11.42,41.35,11.08,41.9-1.22,2-3.35,2-4.72,3.63-12.34-11.12-29.56-25.27-34.55-28.34-2.37-1.45-6.82-.55-8.15,1.67s.92,6,3.3,7.46c1.82,1.14,2.61.16,4,.33.75.4,1.48.76,2.21,1.13,1.46,1.14,1.77,2.28,1.53,3.43a17,17,0,0,0-1.06,2.69c-1.54,3.07-3.27,6.61,4.59,11.42,2.36,1.45,22.5,8.94,24.87,10.39a15.69,15.69,0,0,1,2.14,2.87c0,1.68,0,3.38,0,5a26.24,26.24,0,0,1-2.38,5.22l3,1.86,0,.14h.2l3.92,2.41a27.59,27.59,0,0,1,3.28-1.28c1.49,4.21,3.12,8.19,6.6,10.92,2.26,3.81,4.46,7.54,6.47,10.89-.42,1.37.34,1.82.34,1.82l1.36,1,1.49,2.47-15.33,15.84,2,.08.16.11.14-.1,3.76.16a25.57,25.57,0,0,1,2.07-5.31c2.9-2.86,5.93-6.17,8.33-8.87a39.61,39.61,0,0,0,3.5,5.3c13.15,8.07,6.51-12.94,23.09-2.79q.92.57,1.74,1.14a79,79,0,0,0,1.47,9c-1.38.32-2.83.68-4.34,1.06a14.53,14.53,0,0,1-2.5-1.12l-1.27,2.1c-4,1.06-8.18,2.27-12.38,3.56-3.87.2-7.92-1.06-11.79-.31-10.76,2.13-18.8,9.14-20.65,14.19l-.11.22,0,.19-.11.29c-.63,2.42,1.09,4.94.49,8.25,6.3-1.6,10.95.4,14.85,3.38-.24.34-.45.67-.63,1-1.66.86-3.61,1.72-5.65,2.54l-.48-.55-4-.15a7.13,7.13,0,0,0-1.56,1.34c-4.43-2.46-8.5-4.76-10-4.83-3.56-.14-7.61,2-10.67,4.63a8.76,8.76,0,0,0-3.13-3.29c-6.39-3.92-27,7.19-28.83,10.17a2.94,2.94,0,0,0-.41,1.6,17.21,17.21,0,0,0-5.52-.17c-2.2-1.56-4-2.65-5.2-3.41l-4-1.54c-.83-1.63-1.67-3.19-2.76-3.87-.41-.25-4-.31-8.55-.47L476.55-85.58C474.17-87,474-87,473.5-88.06a4.31,4.31,0,0,0,4-2.36c.65-1.08,1-8-1.87-10.19.54-.38,1.09-.77,1.67-1.16a7.23,7.23,0,0,0,1.89,2.1c3.77,2.3,7.56,1.38,11.49.59a65.91,65.91,0,0,0,6.62-.58,12.94,12.94,0,0,1,7.13,3.1c.58-4.65,5.31-3.76,6.5-3,2.37,1.45,1.13,1.35,1.13,1.35l-2.75.44-4.05,6.72,1.2.74v.1h.16l2,1.23a24.16,24.16,0,0,0,5.16-.75l3.4.55-2.38,3.93c5,3.24,9,10.55,11.39,12s4.33.05,5.94-.33L534-76.74c-3.45-3.53-6.23-8.89-8.59-10.34-2.08-1.26-4.94-1.19-7.17-2a28.85,28.85,0,0,0,7.55.44l.45.48c2.26-1,5.15-1.34,6.48-3.55s.23-4.7.56-5.41c14,1.41,30.49,5.54,38.42-7.61,2.53-4.2,1.54-13.59-3.55-16.71-2.38-1.46-18.68-1.41-24.71-3.31l9.19-8c4.43.12,8.6,1.35,11.74,5.24,2-2.89,5.25-3.94,6.58-6.16l.14-.27.12-.17.08-.23a15.71,15.71,0,0,0,.94-8.79,3.76,3.76,0,0,0,2.15-1.32c1.84-1,3.32-2.2,3.39-3.74-1.06-.69-2-1.31-3.1-1.94v0h-.05c-1-.61-2-1.19-3.17-1.79a17.36,17.36,0,0,1-1.38,1.82,25.13,25.13,0,0,0-4.15-6.11l-.16-.15a4.72,4.72,0,0,0-4.3-7.25,4.36,4.36,0,0,0-3.86,2.17c-.37-.24-.74-.49-1.08-.75A195.75,195.75,0,0,0,541-181.58c-2.14-2.74-3.68-4.68-3.8-4.77-2.36-1.44-7.52-5.82-9.89-7.26s-4.82.82-7.47,1.22c-7.66-3.69-16.15-4.81-21-7.78-2.37-1.46-4.51-8-7.29-11.25-7.32-8.58-39.2-35.4-46.31-39.76-2.36-1.45-6.81-.55-8.14,1.67s.92,6,3.29,7.45c1.83,1.14,2.61.17,4,.34l2.2,1.13a3.26,3.26,0,0,1,1.54,3.43,17.38,17.38,0,0,0-1.07,2.68c-1.54,3.07-3.26,6.62,4.59,11.43,2.37,1.44,22.51,8.94,24.88,10.39.81.51,5,7.32,10.09,15.77,1.53,4.38,3.15,8.54,6.75,11.37,2.27,3.81,4.47,7.54,6.47,10.89-.42,1.37.35,1.81.35,1.81l1.36,1c3.3,5.52,5.71,9.42,6.14,9.68,13.15,8.07,6.52-12.94,23.1-2.79,6.62,4.06,9.66,8.58,9.18,14.24-2.47-.45-4.11.81-2.9,5.06a6.84,6.84,0,0,0-2,6.65c-1.42,1.81-3.33,3.72-4.23,5.44l1.06.66v0H532l2.61,1.61a52.46,52.46,0,0,0-5.79-.79c-3.17-.69-6.5-1.3-9.24-2a16.21,16.21,0,0,1-4.71-3c-3.37,6.43.34,10.72,2.35,15.22-1.32.14-3.13,1.51-4.6,3.42A105.91,105.91,0,0,1,501-121.7c3.51-6-4.17-9.57-3.51-14-8.33-6.6-24-1.37-19.54,11.71h0a11,11,0,0,0,3.65,5.46,8.25,8.25,0,0,0-.92,1.48,36.78,36.78,0,0,0-31.06,12.65l-.76-.17c1.85-5-2.92-12-9.88-9.69a6.7,6.7,0,0,0-4.47,4.07L426.63-115c-1.62-1-8.16-2.71-12.87-4.16a3.1,3.1,0,0,0-.46-.35,4,4,0,0,0-1.21-.19,17.42,17.42,0,0,1-3-1.18l-25.64-15.72c-3.18.62-5.93.58-6.52,1.85l6.08,3.91a90.5,90.5,0,0,0,9.51,7c-1.09-.31-2.53-.85-3.93-.27,1.93,1.08,6.35,2.48,11.23,3.93-3.07-.17-6.22-.41-8.95-.81-.53-3.18-5.21-4.23-7.9-2.78-1.08-1-2.07-2.31-3.1-3.47l.06,0c2.53-2.62-1.82-6.41-4.32-3.8a2.67,2.67,0,0,0-.65,1,130.31,130.31,0,0,0-21.72-1.71l4.39,2.69c1.29.33,2.21.84,3.2.58l.2.21a1.75,1.75,0,0,1-.22,1.24c-13.3-2.9-30-6.61-44.69-10.35-1.4-.4-2.81-.81-4.19-1.15l.08.1c-2.35-.6-4.64-1.22-6.83-1.82,25.37,15.88,45.35,16.67,67.15,26.52-2.06,2.59,2.1,6.08,4.55,3.54a2.7,2.7,0,0,0,.65-1l2.29,1.22c-8.94,3.16-13.93,16.11-.42,21.55,2.94,4.44,13.68-.43,16.33-7.67,1.54.58,3.36.61,6.22-.73a4.94,4.94,0,0,0-1.56-2.72c-1.38-.36-2.78-.78-4.19-1.22-.39-2.32-1.75-4.72-4.49-7a12.16,12.16,0,0,0-11.55-2.3c.12-2.17-1.76-3.89-3.17-5.21,6,1.92,10.62,3.48,12.64,4.43l.76.39c3.43,2.11,9.84,10.87,12.56,12.53,2.22,1.38,11.5-1.44,14.62-.6A27.63,27.63,0,0,1,422-91.29a3,3,0,0,1,.09.38c-2.5-.61-5-1.22-7.39-1.83-1.39-.4-2.81-.81-4.19-1.16l.08.11c-2.34-.61-4.63-1.23-6.82-1.83a129,129,0,0,0,17.88,9.36c-3.32,3.06-16.9,3.33-28.51,3.9a2.92,2.92,0,0,0-3.8-2.85A2.48,2.48,0,0,0,387.54-82c-4.49.32-8.24.79-10.33,1.64s-4.15,1.54-6.31,2.17a5,5,0,0,0-2.34-1.24c9.4-3.77,2.28-17.48-6.8-13.16-3.46-1.52-5.71-1.5-7.19-.6.27-.72-.11-.86-.57-2.1-4.6.21-16.44-2-20,2.62-1.22-2.5-4.75-4.1-7.43-2.07a14.29,14.29,0,0,0-5.18,1,37,37,0,0,0,3.68.83c-1.91,4.12,4.31,8.87,8.1,5a3.94,3.94,0,0,0,1.08-4.07c3,.46,15,1.87,18.63.8-1.84,3.72-.82,10.39-2,12.55-1.5-11.23-9.46,10.6-.79,2.23a7.63,7.63,0,0,0-.1,1.82c-12.19.85-25,.06-37.26-1.16-10-1.25-19.82-2.5-29.43-3.55-7.12-1.1-13.71-2.35-14-2.51C267-83.33,269-84.52,266.59-86c-1.61-1-3.91-.83-6.14-.86a33.38,33.38,0,0,0-5.77-1.92c-1.15-1.37-1.53-3-3.36-4.16-2.36-1.46-10.24,1.16-15,2.3.35,1.86.55,3.37,2.93,4.82s6.9.26,8.34-1c-.39,1.85,1.83,2.35.5,4.56s-3.57-.21-5.24.17c-.68,1,1.23,2.2-.11,4.41s-1.42.51-3.63,1.75l4.45,2.72c2-.66,3.3-.89,4.3-1.33h0c-.33,1.89.42,2.69,2.78,4.13l.38,0h.07c.69.08,2.28.23,4.56.44a41.63,41.63,0,0,1-3,7.75l3.56,2.19c2.13-5.15,3.57-7.79,4.45-9.51,15.75,1.31,46.9,3.6,69.58,4a4.88,4.88,0,0,0-1.38,1c-4.17,4.3,3,10.57,7.2,6.26,2.52-2.62.86-6-1.76-7.21,5.84,0,11,0,14.86-.34-3.85,4.3,3.21,10.35,7.32,6.1,2.34-2.4,1.16-5.4-1.08-6.86,7.91-1,12,.09,18.33,3.35,5.49-2.63,13-3.6,19.89-4a10.56,10.56,0,0,0-3.17,11.24,13.26,13.26,0,0,0-4.17,1.72c1.3-3.35-2.25-7-6-5.75-5.56,1.81-2.47,10,3.16,8.32A23.42,23.42,0,0,0,381.69-49c-4.16,1.18-7.85,2.11-10.52,3.88l4.54,2.78a4,4,0,0,1,1.05-1l.38.22a46.07,46.07,0,0,1-2.28,5.26l1.25-.12-.21.37a9.27,9.27,0,0,0-1.8.4,8.7,8.7,0,0,0-1.84.86c-2.52-.46-4.19-.8-4.32-.88-2.37-1.45-.36-2.65-2.74-4.09-1.61-1-3.91-.83-6.14-.85a32.76,32.76,0,0,0-5.2-1.78,7.76,7.76,0,0,0-.31-1c-2.28-5.68-9.51-6-13-2.51-1.38.35-2.74.72-4,1-3.38-4-8.67-4.71-13.19-3.3a4.86,4.86,0,0,0-1.19-1c-2.72-1.67-13.69-4-20.26-.5,1.23.1,2.38.22,3.49.36a5.92,5.92,0,0,0,2,2c2.28,1.39,5.15-.2,6.44-.19a19.71,19.71,0,0,1,4.21,1.88l.33.22a10,10,0,0,0-3.55,6.31c-.17-.12-.33-.24-.51-.35-2.35-1.44-2.29-1.23-4.12-.68.31,1.23,3.24,7.54,2,9.64-.12.19-11.31,1.38-20.86,2.6-2.45,0-4.8-.05-6.88,0,4.45-2.26,10.37-3.39,12.84-7.48,1.31-2.2.42-3.18-.66-6.44-1.84.21-4.75,1.63-7.74,3.37a17.2,17.2,0,0,0-5.9,3.76,55.7,55.7,0,0,0-5.22,3.85l-2.25,3.73,2.46,1.5c-.06.06-.06.12,0,.17a2.47,2.47,0,0,0,.69.27l1.37.85c.12-.19.26-.35.39-.52,4.71.62,14.77.56,23.32-.38q1.06-.06,2.07-.18c-4.53,5.73-4.31,13.91-.73,20.33l-1.83.64c.38,1.83-.3,1.59,2.06,3a6.29,6.29,0,0,0,2.12-.3c4.58,5.36,12,8.39,21,5.41.45-.16.9-.32,1.33-.5-.43.75-.92,1.6-2,3.36-1.63.53-3.29,1.07-4,2.19-1.34,2.2.14,1.89-.38,3.35l1-.09-.26.43L327,12.58a50.16,50.16,0,0,1,9.65-5.64c-2,4.67-1.79,10.26,1.92,15.92a17.38,17.38,0,0,0,.08,5.2l-6.71,4.17c.38-.86,0-.93-.45-2.22-6-.61-9,2.86-12.88,7.73a26.68,26.68,0,0,0,6.52-1.31c-13.76,8.46-24.72,15-26.37,15.89l-.84-2.94c-7.54,2.59-37.2,11.24-41.05,18l-1.78,3,1.67-.26,0,0,.25-.07c10.76-1.92,23.21-9.81,32.95-12.17l.06,0c-9.87,12.2-25.83,14.28-32.53,25.41l-.31.63-.23.26-.29,1.37c-.67,3-.24,7.38,3.41,9.62l.07,0,0,.09.56-.43c2.5-1.55,11.87-8,22.37-15.3,4.34-.51,8.34-1.41,9.15-2.75,1.33-2.21-.05-3-.05-3L290.8,74C300,67.51,309,61,314.24,57l.93,3c.93-.9,2.56-2.72,5.12-2.95-.55.34-2.21,3.23-2.06,6.09,2.59-1.18,5.45-1.51,6.77-3.71s0-3,0-3c-2,.18-2.49,1.06-3.48,1.49.19-1.2,0-2.89.2-4.53,7.69-1.31,15-3,18.81-5.08a5.87,5.87,0,0,1,1.85.61h0c2.38,1.47,4,7.42,2.63,9.63l-12.64,21c-1.33,2.21-5.16,4.25-5.87,5.78C319,79,314.81,89.47,308.26,91.47A4.93,4.93,0,0,0,310,94.29c5.4-2.4,12.82-10.27,17.31-7.51,1.88,1.15,1.43,15.42.4,17.61l-.21.29c-2,2.43-22.43,11.49-23.73,13.65-1.61,2.66-.26,5.54,3.12,7.91l.38.29.15.07.33.21c9.46,5.81,20-11.5,23.91-13.46,8.33-4.14,18.92-5.47,27.44-12.34A175.73,175.73,0,0,0,378.5,82.37l.6-.14c4.4,4.6,4.88-3,9.92-4.22-.37-1.86-2.26-3-2.72-4.08A8.74,8.74,0,0,0,388,73.4c1.55-.43,4.05-1.1,7.08-1.86l.29.11c-2,.9-4,2-5,3.54-1.33,2.2,1.62,1.61.3,3.81s-3.5,1.5-5.11,4.48l5.51,3.39c-.15-3.33.93-3.54,2.7-6.44,2.32-1.83,4.59-3.42,5.37-4.71,1.32-2.21.11-2.85.11-2.85a3.87,3.87,0,0,0-1.59-.58l.18-.35c.25-.44,24.11-6.46,32.42-5.56a17.38,17.38,0,0,1-.19,7.22c-.63,1.54-1.23,3.13-1.8,4.67C412.44,88.06,399.17,96,397.33,97l-.83-2.93c-7.54,2.59-37.21,11.23-41.06,18L353.67,115l1.66-.26,0,0,.24-.07c10.77-1.92,23.22-9.8,33-12.17l.05,0c-9.86,12.2-25.82,14.28-32.53,25.42l-.31.63-.22.25-.29,1.37c-.68,3-.24,7.38,3.4,9.63l.08-.05,0,.09.57-.42c2-1.26,8.52-5.68,16.48-11.2l-3.82,6.34a9.43,9.43,0,0,1,2.9,1.41c-.54.23-1.11.49-1.7.79l-.18-.07-.9.64c-8,4.36-19.62,13.82-20.11,14.87l-1.6,2.65-.13.09,0,.05-.19.32h6.59c7.87-3.4,18.43-9.53,20.61-13.15a5.44,5.44,0,0,0,.52-3.81l1.48-1.37c-2.17-1.54-3.33-2.87-2.84-3.67,5.88-4.49,24.47-17,41.19-29.62a9.45,9.45,0,0,0-.78,4c1.25-.57,2.57-1,3.75-1.43a11.12,11.12,0,0,0,1.36,4.56l5.37-6.21-3.17-2a1.6,1.6,0,0,0-.56-1.71c-2,.18-2.49,1.06-3.48,1.49,0-.23.06-.47.08-.73,4-3.07,7.85-6.13,11.34-9.07,4-.28,8-.09,9.45.8h0c2.37,1.47,3.95,7.42,2.63,9.63l-12.64,21c-1.34,2.22-5.17,4.25-5.87,5.78-7.54-6.27-11.7,4.24-18.25,6.25a5,5,0,0,0,1.72,2.82c5.4-2.41,12.82-10.28,17.31-7.52,1.88,1.15,1.43,15.42.4,17.62l-.21.28c-.9,1.09-5.43,3.48-10.3,6h21c2.89-1,5.9-2,8.88-3.12.06,1,.21,2.09.28,3.12h10.58a5.66,5.66,0,0,0,.44-.59c1-1.6,2.63-6.67,3.75-11.58q2.2-1.87,4.3-3.82l-3.68,9c3.16-1.21,10.08-6.6,12.86-9.67-1,1.89-2,3.83-4.24,5.06,4.19.54,8.52-1.56,9.93-4.16l3.9-6.47c-4.4-.18-6.5,1-7.9,2.8l-.05.07c.1-.85-.76-1.32-2.63-3.29-2.82,2.08-4.31,4.53-7.63,6.13,3.88-3.65,7.6-7.52,11.54-11.78l.6-.14c4.4,4.61,4.87-3,9.92-4.21-.37-1.87-2.26-3-2.73-4.09a7.78,7.78,0,0,0,1.72-.53c1.55-.43,4.05-1.09,7.09-1.85l.33.12c2.37,1.45,1.17.52,1.57,1.79-.38.58-1.48,1.16-1.48,2.35a13.37,13.37,0,0,1-2.58.76L487,128.81c5.17,2.87,10.73-2.94,11.53-4.27s.68-1.93.5-2.34a49,49,0,0,0,5.2-5.45,12.73,12.73,0,0,0,.34-2.3,147.72,147.72,0,0,1,19.76-3.38c.54,2.17,1.29,4.74,2,7.28.31,1.37.58,2.71.81,3.94-.37,1-.74,2-1.07,3-1,2.1-2.2,4-3.23,5.71-.11.2-15.5,13-28.91,24.38h12.92c3.31-2.41,6.65-4.88,9.91-7.35.11,9.94,2.62,24.25,5.43,37.67l10,6.81c-1.83-15.94-4.18-34-4.12-34.18.47-1.86,1-4,1.78-6.14,1.06-2.12,2.21-4.5,3.2-6.8a21.79,21.79,0,0,1,5.29-5.72c7.13,3.68,21.13,21,21,21.41a9.24,9.24,0,0,1-1.73,3l-3.78-.16s-1.39-.17-2,2.25c-.37,1.45-.42,8.89,5.74,9.39l2.15-8.29a9.86,9.86,0,0,1-1.44-2c.9-.93.49-2,.62-2.61,1.27-.77-.36-.68,2.57-.56l.35.08c1.79,2.19,3.23,4,4.12,5.17a6,6,0,0,0,.93,1.33c-1.16.57-3.5.48-5.19,1.73,3,3.58-2.34,9.76,4.54,8.51l.36.42c-.14,5.38-.17,10.35.1,15.24-1.37-3-.69-5.69-1.32-8.79-2.93.54-3.95.46-4.51,1.17v-.09c.23-2.08-.47-4.16-4-6.33L555,187.64c-.87,2.77.92,6.68,4.58,8.47-.83-2.16-.14-4.19.51-6.17-.15,3.85,1.18,11.68,2.72,14.29l3.92-8.93c.1,1.75.26,3.49.45,5.24-2.81,4.4-5.32,9.22-5.79,11a3.48,3.48,0,0,0-.1.69l8.22,5.58c.83-.76,1.76-1.53,2.56-2.28,1.47,2.46,3.08,4.79,4.55,7.1L593,233.68c-1.9-4.52-3.62-8.77-3.51-10.09l0-.33c.85-2.24,11.24-13.57,13.56-13.47,5.56.22,5.41,10.24,7.8,15a6.81,6.81,0,0,0,3.46-1.28c-3.59-5,1.09-15.37-9.49-14.47.61-1.56-.84-5.16-.2-7.59l6-23c.63-2.41,6.33-6.2,9.28-6.09h0c1.82.08,5,2,7.94,4.35.5,4.12,1.19,8.53,2,13-.18.21-.35.41-.49.61-.45-.86-.19-1.82-1.58-3a2.16,2.16,0,0,0-1.73,1l-3.93-.16-.5,7.66a15.49,15.49,0,0,0,4.49-2.82c.55,1,1.29,2,1.84,3.09a10.72,10.72,0,0,0,2.42-3.54c3.48,18.64,8.54,38.13,9.73,44.73-.23.87-2.13,1.29-5,1.35l.12,1.84a6.4,6.4,0,0,0-2.46,3.23c-1,4,2.57,14.3,6.12,21.09l5.12,3.47.1-.35h.07l0-.13.75-2.91c.4-1.07-1.51-14.55-4.44-22.15l-.22-1-.2,0c-.23-.55-.47-1.06-.71-1.52a10.71,10.71,0,0,1,3.3.43l1.81-6.93c2,8.48,3.76,15.34,4.38,17.38l.12.63.09-.05,0,.07c4.52.18,8.15-3,9.88-5.68l.81-1.22v-.31l.24-.65c3.16-12.19-7.68-22.22-6.17-36.9l.06,0c5.79,7,9.53,19.66,16.45,26.83l.14.18V234l1.1,1.08.84-3.23c2.06-7.24-14.49-29.6-18.39-35.59l-2.86,1.84c-.69-1.73-5-14.91-10-30.87.73-1.5,1.46-3.05,2.12-4.58a21.57,21.57,0,0,1,5.29-5.71c7.12,3.68,21.13,20.94,21,21.41l-.12.37a4.11,4.11,0,0,0-1.68-.4s-1.42-.13-2,2.28c-.37,1.41.2,3.85.63,6.49-.82,3.19-.13,3.92-2.74,6.43l6.83.27c1-3.17-1.24-3.75-.61-6.17s2.48-.39,3.1-2.8c.44-1.73-.32-3.62-1.22-5.39l.31.07c1.78,2.19,3.22,4,4.11,5.18a6.27,6.27,0,0,0,.93,1.32c-1.16.58-3.5.48-5.18,1.74,3,3.57-2.35,9.76,4.53,8.5l.37.42c-.24,8.88-.17,16.63,1.06,24.73,1.46,9.83,8.68,16.45,12,24.06,1.59,3.59-3.27,22.58,8.46,23.06H699l.52,0c4.4-.06,7.61-1.58,8.36-4.49.61-2.37-8.41-20.16-8.16-23.12l.05-.33c.85-2.25,11.23-13.58,13.55-13.48,5.57.22,5.41,10.25,7.8,15a6.74,6.74,0,0,0,3.46-1.29c-3.58-5,1.1-15.37-9.49-14.47.61-1.56-.83-5.16-.2-7.58l6-23c.63-2.41,6.33-6.2,9.28-6.09h0a5.82,5.82,0,0,1,1.9.51c1.42,3.64,5.8,8.78,10.79,13.86-1.09,1.36-2.5,2.59-3.24,3.62-.45-.86-.2-1.82-1.59-3,0,0-1.67-.08-2.3,2.35s1.35,4.17,2.47,6.45c2.28-2.14,3.15-5.25,3-5.81,1.82,1.53,1.71,3.8,1.75,5l3-1.81c1,5.87,3.14,15.68,5.4,25.6-.28-.36-.55-.69-.77-1,0,0-1.7-.07-2.34,2.35-.37,1.47,2,4.27,5,7,2.64,11.24,5.11,21.15,5.88,23.68l.11.63.1-.05,0,.07c4.53.18,8.15-3,9.89-5.68l.8-1.22,0-.32.23-.65c3.17-12.18-7.67-22.21-6.16-36.89h.06c5.79,7,9.53,19.66,16.45,26.83l.13.18v-.06l1.1,1.09.84-3.23c2.06-7.25-14.48-29.61-18.39-35.6l-2.86,1.84c-.62-1.55-4.2-12.42-8.54-26.24a20,20,0,0,0,4.09,4.45c.61-5.85,1-10.09-4.2-12.8-1.32.77-1.67.62-2,1.5q-1-3.35-2.08-6.78a22.18,22.18,0,0,0,4-4c7.14-2.43,11.49-6.68,13.47-11.35a35.75,35.75,0,0,1,3.25,9.47l3.28.14.11-.46.71.58c.69-1.4,1.6-.38,2.22-2.79.33-1.23-.57-2.52-1.43-3.79.49-1.94.74-2.86,1-3.67.21.37.43.73.67,1.09,4.78,7.09,12.82,8.65,20.41,6.9.73.84,1.24,1.34,1.42,1.35,2.93.12,2.22,0,3.89-1.27l-.94-1.47c7.61-3.1,13.93-9.34,14.71-16.18.48.41,1,.83,1.48,1.23,5.94,5.25,13.71,10.59,17.83,12.59,0,.2,0,.4-.08.61l1.72.07a3.56,3.56,0,0,0,.72.15.12.12,0,0,0,.15-.12l3,.13,1.06-4.08a42.91,42.91,0,0,0-1.16-5.75A12.58,12.58,0,0,0,838.35,148.83ZM793.9,23.08a12.69,12.69,0,0,1,1.89.26c-1.91.84-3.79,1.65-5.19,1.59-1.22-.05-2.57-1-4-2.15ZM676.63-185.66l.37.29a1.94,1.94,0,0,0,0,.2l-1.48-.9A2.2,2.2,0,0,1,676.63-185.66ZM537-131c0,.15,0,.29,0,.44-.37-.13-.74-.26-1.12-.36Zm-14.22,9.56c.17,1.06.23.8-.81,2.51a7.92,7.92,0,0,0-3-.86,3.61,3.61,0,0,0-.14-.89C519.74-121.56,520.93-121.2,522.74-121.41ZM340.63-18.47a18.26,18.26,0,0,0-3.14-7,13,13,0,0,0,2.36-.85c-1.23-.31-2.46-.56-3.7-.78a21.76,21.76,0,0,0-2.09-2A6.88,6.88,0,0,0,336.43-31a13,13,0,0,0,3.08-8.54,7.79,7.79,0,0,0,1.85,2.39c-.33,1,1.24,2.13,0,4.19-1.32,2.22-1.41.51-3.63,1.75l4.45,2.72c2-.65,3.31-.89,4.31-1.32h0c-.32,1.89.43,2.69,2.78,4.13l.39.06h.06l.39,0A39.07,39.07,0,0,0,340.63-18.47ZM381.32-3.41a19.18,19.18,0,0,0-10.73,6.26,20.32,20.32,0,0,0-7.43-6.06,29.49,29.49,0,0,0,9.41-9.94c1.27-2.09,1.18-7.69,2.28-10.17a7.6,7.6,0,0,0,3.66.09l4.13.29A17.18,17.18,0,0,0,381.32-3.41Zm.5-32.2a7.26,7.26,0,0,0-5.18-2l1.53-.57c1.33-.19,2.74-.45,4.13-.77a16.31,16.31,0,0,0,3.47,2.52C384.44-36.17,383.13-35.9,381.82-35.61ZM419.23-111c-1.13-.69-2-2.3-2.84-4a12.45,12.45,0,0,1,1.66.8l5.89,3.61C422-110.46,420.22-110.42,419.23-111Zm11.15,54.3c-.15,0-.31.08-.48.14.28.5.57,1,.84,1.35a18.36,18.36,0,0,0,1.3,3.36,3.41,3.41,0,0,1-.45,1.08,6.82,6.82,0,0,1-2.26,1.89c-2.64-2-7.23-1.07-9.33-.21a22,22,0,0,0,7.91,1A67.1,67.1,0,0,1,413-42.83a7.39,7.39,0,0,0-5.27-1.78c4.44-1.8,10.8-4,13.16-7.89,1.6-2.65,4-5.34-.2-11.61a15.06,15.06,0,0,0-3.41.94,16.64,16.64,0,0,0-2.73.48,12.25,12.25,0,0,0-4.5-5.63,29.14,29.14,0,0,0,6.8-3H417c1.14,4,4.23,7,10.08,5a7,7,0,0,0,4.54-4.43h0a7.19,7.19,0,0,1,1.28,1.11A17.62,17.62,0,0,0,430.38-56.73ZM446.66,66.81a6.29,6.29,0,0,1,1-4.29,46,46,0,0,1,6-4.85s0,.08,0,.12l-1,3.85,2.08.09C452,63.41,449.36,65.11,446.66,66.81Zm36-30.06c-1.34,2.22-1.39,2.61-.63,4.46,1.69-1.13,3.3-2.29,4.87-3.47l-.47,1c-.68,1-1.43,2-2.23,3-5.12,4-14.72,10.5-25.75,17.61v-.11l.59-.36a3.69,3.69,0,0,0-.2-3.07L459,54c1.38-.89,2.7-1.76,3.86-2.55.63-.36,1.23-.69,1.76-.93,6.14-2.83,14.07-20.86,22.8-27.06l.29-.1a74.4,74.4,0,0,1,.55,7.88A29.59,29.59,0,0,0,482.65,36.75Zm72.5-95.11,2-1.6a14.19,14.19,0,0,0,.81,2Q556.6-58.12,555.15-58.36ZM646.5-79.14a17.77,17.77,0,0,1-5.87-1.52,3.94,3.94,0,0,1-.76-.6,2.16,2.16,0,0,0-.58-1.27,2.5,2.5,0,0,0-1.39-2.23,14.35,14.35,0,0,0-3.48-1.46c2.85-.12,6.14-.75,9.52-1.23C643.75-84.18,641.48-80.45,646.5-79.14Zm-18.3-68.24,3.11-2c.34,1.16.7,2.32,1.07,3.48l1.29-5c.67-.42,1.31-.85,2-1.26a18.59,18.59,0,0,0,2.1,5.09,33.58,33.58,0,0,1-1.39,5.93,4.46,4.46,0,0,0-.48-.56C634.09-142.75,630.75-145.48,628.2-147.38ZM621.72-91a24.7,24.7,0,0,1,11-2.06,27.44,27.44,0,0,0-3.24,4.22l1.07.66,0,0h.07l2.61,1.6a56.94,56.94,0,0,0-5.79-.79l-2.91-.61A11.62,11.62,0,0,0,621.72-91ZM628,55.25c-.54-1-1-1.92-1.4-2.81A5.79,5.79,0,0,1,628,55.25ZM638,144.76a7.15,7.15,0,0,1-2.46,3.88c-6.11-20.58-11.46-40.51-10.54-44a4.79,4.79,0,0,1,.87-1.24c.38,2.23.86,4.47,1.45,6.74,2-1,2.24-1.37,2.87-3.8a23.26,23.26,0,0,0-.28-7.23c2.07-2,4.43-4.25,6.36-5.82l.15.23c2.11,9.41-5.28,27.6-2.63,33,.22.47.45,1,.66,1.65.55,2.21,1.32,4.86,2.08,7.48C637.54,140,638.17,144.16,638,144.76ZM643.84-6.53c-1.38-1.64-2.79-3.33-4.21-5a32.66,32.66,0,0,1,5.28,2.49c.13,1,.3,2.11.49,3.26C644.87-6,644.35-6.29,643.84-6.53ZM718-37.71c1.25,1.11,2.43,1.47,2.47,2.67a4.71,4.71,0,0,0-.76.61,8.12,8.12,0,0,0-3-.91C717.2-37.21,717.06-37,718-37.71Zm-3.86-14.92q.42.35.84.66c-.38-.12-.76-.22-1.14-.31ZM736,67.86a5.33,5.33,0,0,1-.33-2.66,3.29,3.29,0,0,1,.46-1.07,27.42,27.42,0,0,0,3.54-1.93c.51-.17,1.07-.37,1.66-.61l-.27-.37a20,20,0,0,0,7.77-11.32,9.39,9.39,0,0,1,1.83-.19h0a5.59,5.59,0,0,0,.2,5.83c3.09,4.59,7.69,3.94,11.62,1.41l0,0a20.61,20.61,0,0,0,3,5.93,16.59,16.59,0,0,0-7.74,2,11.4,11.4,0,0,0-1.75-1.82,11.47,11.47,0,0,0-2-2.53c-8,2.65-8.14,6-8.88,8.92-1.12,4.29,2.19,9.33,4.29,13.07a7.64,7.64,0,0,0-5.44-1.4,48.73,48.73,0,0,1-7.57-11.93,20.13,20.13,0,0,0,6.89,3.38C742.46,70.84,739.6,67.71,736,67.86Zm17.2,57.71a23.65,23.65,0,0,0-.16,12.68,25.4,25.4,0,0,0-10.32.79,14,14,0,0,0-3.64-10.52c8.16-3.2,12.87-9.56,13.67-15.87l3.42,1.95a6.36,6.36,0,0,0,2.92,1.86C758.11,119,753.83,123.27,753.24,125.57ZM763,103.24c-.81-.91-1.62-1.82-2.45-2.73a20,20,0,0,0,4.6-.14,36.76,36.76,0,0,0,2.62,2.78c.25.4.5.82.76,1.25A7.66,7.66,0,0,0,763,103.24Zm31.76,27.54a5.16,5.16,0,0,0,.43,2.71,24.33,24.33,0,0,0-3.1.42c-1.12-.49-2.27-.95-3.46-1.35a10.51,10.51,0,0,0,1.19,1.91,25.46,25.46,0,0,0-7.71,3.8A29.25,29.25,0,0,0,780,127.78l.33.18.06,0,.34.16c2.91.12,4.1-.1,5.27-1.74h0c.45.86,1.3,1.74,2.35,3.3l5.5.23c-.79-2.13-2.14-.85-1.5-3.28.57-2.25,2.67-2.32,3.14-3.26a10.74,10.74,0,0,0,3.24-.87A13.27,13.27,0,0,0,794.72,130.78Z"/><path class="cls-46" d="M495.57,119.85h0Z"/><path class="cls-46" d="M496.26,117.05a3.68,3.68,0,0,1,.23-.44.56.56,0,0,1,.2-.1C496.56,116.69,496.4,116.87,496.26,117.05Z"/><path class="cls-46" d="M878.36,39.31V34.42l-3.51-.14c-2.91-.13-20.32-6.71-23.26-6.83a17.12,17.12,0,0,0-7.94,1c1,2.43,7.31,5.43,13.5,7.59a3,3,0,0,0-2.49,2.73c0,3.35,6.25,2.7,6.26-.65a2,2,0,0,0-.22-.92,39.13,39.13,0,0,0,7.92,1.71Z"/><path class="cls-46" d="M865.82,96a37.89,37.89,0,0,0-5.76-2.48C860.87,95.15,863.35,96.38,865.82,96Z"/><polygon class="cls-46" points="535.34 184.85 536.64 184.9 536.51 185.49 537.46 184.93 540.95 185.07 541.18 179.02 536.91 178.85 535.34 184.85"/><path class="cls-46" d="M495.53,128.27l-1.69,6.56a7.69,7.69,0,0,0,5.79-5.36A6.11,6.11,0,0,0,495.53,128.27Z"/><path class="cls-46" d="M878.36,65.29h0l-1.07,4.09,1.08.33Z"/><path class="cls-46" d="M798.92,176.8c-1.88,1-2,.89-2.65,3.32s.44,3.16,1.5,4.74l4.33.17c-.79-2.12-.21-3.71.2-6C800.75,178.83,800.22,178,798.92,176.8Z"/><path class="cls-46" d="M516.13,171.11l-4.22-.17-.49,7.39.22.15c2-1,4.7-2.2,5.3-4.51S517.23,172.16,516.13,171.11Z"/><path class="cls-46" d="M824,3.93c0,5.56,10.3,4.47,10.32-1.1S824-1.65,824,3.93Z"/><path class="cls-46" d="M821.57-5.76c4.25-7.71-25-8.69-25,7.09C796.58,18.9,830.07,8.86,821.57-5.76Z"/><path class="cls-46" d="M857-1c0-5.54-10.31-4.47-10.3,1.09S857,4.56,857-1Z"/><path class="cls-46" d="M799.14-8.55c0-6.79-13.17-1-16.82-3.07a7,7,0,0,0,2-4.71c8.88-2.63.28-12.46-5.07-5.93-9.84-2.6-29.6,10.38-13.84,14-4.39,1.38-5.29,6.47-1.32,7.94,3.09,4.18,23.74,2,21.23-7.52a3.57,3.57,0,0,0,3.58.06C788.15-2.06,799.15-2.72,799.14-8.55Z"/><path class="cls-46" d="M784.47,2.39c3,4.43,11.78-.28,8.82-4.72S781.51-2,784.47,2.39Z"/><path class="cls-46" d="M836.69,69c0,3.37,6.26,2.72,6.23-.65S836.71,65.58,836.69,69Z"/><path class="cls-46" d="M825.32,57.41c-3.22-.55-6.76,1.85-6.78,4.76,0,9.4,19.06-1.14,12-3.12C849.58,55,816.35,44.85,825.32,57.41Z"/><path class="cls-46" d="M864.76,68.29c0-3.37-6.25-2.71-6.24.65S864.74,71.66,864.76,68.29Z"/><path class="cls-46" d="M847.57,54c0-3.37-6.25-2.72-6.23.65S847.57,57.31,847.57,54Z"/><path class="cls-46" d="M800.91,17.78c0,3.34,6.24,2.69,6.24-.68S800.91,14.41,800.91,17.78Z"/><path class="cls-46" d="M784.21,53.28c3,4.43,11.78-.28,8.79-4.69S781.21,48.85,784.21,53.28Z"/><path class="cls-46" d="M823.2,18.57c0-3.35-6.24-2.72-6.22.64S823.2,21.94,823.2,18.57Z"/><path class="cls-46" d="M865,24.68c0-3.37-6.25-2.72-6.26.65S865,28.05,865,24.68Z"/><path class="cls-46" d="M842,17.84c0-5.57-10.31-4.47-10.3,1.09S842,23.41,842,17.84Z"/></g></svg>